<?xml version="1.0" encoding="UTF-8" standalone="no"?>
<svg xmlns:sketch="http://www.bohemiancoding.com/sketch/ns" xmlns="http://www.w3.org/2000/svg" height="20px" width="20px" version="1.1" xmlns:xlink="http://www.w3.org/1999/xlink" viewBox="0 0 20 20"><!-- Generator: Sketch 3.3.2 (12043) - http://www.bohemiancoding.com/sketch -->
 <title>Untitled 5</title>
 <desc>Created with Sketch.</desc>
 <g id="Page-1" fill-rule="evenodd" sketch:type="MSPage" fill="none">
  <g id="eliminar" fill="#444" sketch:type="MSLayerGroup">
   <path id="Shape" sketch:type="MSShapeGroup" d="m3 20c-0.6 0-1-0.4-1-1v-12h2v11h12v-11h2v12c0 0.6-0.4 1-1 1h-14z"/>
   <path id="Shape" sketch:type="MSShapeGroup" d="m19 3h-6v-2c0-0.6-0.4-1-1-1h-4c-0.6 0-1 0.4-1 1v2h-6c-0.6 0-1 0.4-1 1s0.4 1 1 1h18c0.6 0 1-0.4 1-1s-0.4-1-1-1z"/>
  </g>
 </g>
</svg>
