<?xml version="1.0" encoding="UTF-8" standalone="no"?>
<svg xmlns:sketch="http://www.bohemiancoding.com/sketch/ns" xmlns="http://www.w3.org/2000/svg" height="20px" width="20px" version="1.1" xmlns:xlink="http://www.w3.org/1999/xlink" viewBox="0 0 20 20"><!-- Generator: Sketch 3.3.2 (12043) - http://www.bohemiancoding.com/sketch -->
 <title>Untitled 4</title>
 <desc>Created with Sketch.</desc>
 <g id="Page-1" fill-rule="evenodd" sketch:type="MSPage">
  <circle id="Oval-1" sketch:type="MSShapeGroup" cy="10" cx="10" r="10" fill="#3F454C"/>
  <path id="?" sketch:type="MSShapeGroup" fill="#fff" d="m8.912 13.25h1.876v1.75h-1.876v-1.75zm-2.226-5.068c0-0.5133 0.077-0.98 0.231-1.4s0.378-0.7793 0.672-1.078 0.6487-0.5297 1.064-0.693 0.8797-0.245 1.393-0.245c0.429 0 0.828 0.063 1.197 0.189s0.691 0.308 0.966 0.546 0.492 0.5343 0.651 0.889 0.238 0.756 0.238 1.204c0 0.3267-0.035 0.609-0.105 0.847s-0.163 0.4433-0.28 0.616-0.25 0.3267-0.399 0.462-0.299 0.2683-0.448 0.399c-0.177 0.149-0.341 0.294-0.49 0.434s-0.28 0.296-0.392 0.469-0.198 0.376-0.259 0.609-0.091 0.518-0.091 0.854h-1.512c0-0.411 0.021-0.758 0.063-1.043s0.1097-0.534 0.203-0.749 0.2077-0.404 0.343-0.567c0.1353-0.1633 0.296-0.3243 0.483-0.483 0.149-0.1307 0.292-0.252 0.427-0.364s0.257-0.2357 0.364-0.371 0.191-0.287 0.252-0.455 0.091-0.3687 0.091-0.602c0-0.28-0.049-0.5203-0.147-0.721s-0.217-0.3617-0.357-0.483-0.289-0.21-0.448-0.266-0.299-0.084-0.42-0.084c-0.5787 0-1.0057 0.189-1.281 0.567s-0.413 0.8843-0.413 1.519h-1.596z"/>
 </g>
</svg>
