<?xml version="1.0" encoding="UTF-8" standalone="no"?>
<svg xmlns:sketch="http://www.bohemiancoding.com/sketch/ns" xmlns="http://www.w3.org/2000/svg" height="16px" width="21px" version="1.1" xmlns:xlink="http://www.w3.org/1999/xlink" viewBox="0 0 21 16"><!-- Generator: Sketch 3.3.2 (12043) - http://www.bohemiancoding.com/sketch -->
 <title>Untitled 6</title>
 <desc>Created with Sketch.</desc>
 <g id="Page-1" fill-rule="evenodd" sketch:type="MSPage" fill="none">
  <g id="Group-Copy-8" fill="#444" sketch:type="MSLayerGroup">
   <path id="Shape" sketch:type="MSShapeGroup" d="m19.95 2.1429h-13.65c-0.63 0-1.05-0.4286-1.05-1.0715 0-0.64283 0.42-1.0714 1.05-1.0714h13.65c0.63 0 1.05 0.42857 1.05 1.0714 0 0.6429-0.42 1.0715-1.05 1.0715z"/>
   <path id="Shape" sketch:type="MSShapeGroup" d="m10.5 8.5714h-4.2c-0.63 0-1.05-0.4285-1.05-1.0714s0.42-1.0714 1.05-1.0714h4.2c0.63 0 1.05 0.4285 1.05 1.0714s-0.42 1.0714-1.05 1.0714z"/>
   <path id="Shape" sketch:type="MSShapeGroup" d="m19.95 15h-13.65c-0.63 0-1.05-0.429-1.05-1.071 0-0.643 0.42-1.072 1.05-1.072h13.65c0.63 0 1.05 0.429 1.05 1.072 0 0.642-0.42 1.071-1.05 1.071z"/>
   <path id="Shape" sketch:type="MSShapeGroup" d="m2.1 2.1429h-1.05c-0.63 0-1.05-0.4286-1.05-1.0715 0-0.64283 0.42-1.0714 1.05-1.0714h1.05c0.63 0 1.05 0.42857 1.05 1.0714 0 0.6429-0.42 1.0715-1.05 1.0715z"/>
   <path id="Shape" sketch:type="MSShapeGroup" d="m2.1 8.5714h-1.05c-0.63 0-1.05-0.4285-1.05-1.0714s0.42-1.0714 1.05-1.0714h1.05c0.63 0 1.05 0.4285 1.05 1.0714s-0.42 1.0714-1.05 1.0714z"/>
   <path id="Shape" sketch:type="MSShapeGroup" d="m2.1 15h-1.05c-0.63 0-1.05-0.429-1.05-1.071 0-0.643 0.42-1.072 1.05-1.072h1.05c0.63 0 1.05 0.429 1.05 1.072 0 0.642-0.42 1.071-1.05 1.071z"/>
  </g>
 </g>
</svg>
