<?xml version="1.0" encoding="UTF-8" standalone="no"?>
<svg xmlns:sketch="http://www.bohemiancoding.com/sketch/ns" xmlns="http://www.w3.org/2000/svg" height="14px" width="15px" version="1.1" xmlns:xlink="http://www.w3.org/1999/xlink" viewBox="0 0 15 14"><!-- Generator: Sketch 3.3.2 (12043) - http://www.bohemiancoding.com/sketch -->
 <title>Untitled 6</title>
 <desc>Created with Sketch.</desc>
 <g id="Page-1" fill-rule="evenodd" sketch:type="MSPage" fill="none">
  <g id="Shape-+-Shape-+-Shape-Copy-2" fill="#444" sketch:type="MSLayerGroup">
   <path id="Shape" sketch:type="MSShapeGroup" d="m3.75 14h-3c-0.45 0-0.75-0.311-0.75-0.778v-5.4442c0-0.4667 0.3-0.7778 0.75-0.7778h3c0.45 0 0.75 0.3111 0.75 0.7778v5.4442c0 0.467-0.3 0.778-0.75 0.778zm-2.25-1.556h1.5v-3.8884h-1.5v3.8884z"/>
   <path id="Shape" sketch:type="MSShapeGroup" d="m8.25 3.8889h-1.5c-0.45 0-0.75 0.3111-0.75 0.7778v8.5553c0 0.467 0.3 0.778 0.75 0.778h1.5c0.45 0 0.75-0.311 0.75-0.778v-8.5553c0-0.4667-0.3-0.7778-0.75-0.7778z"/>
   <path id="Shape" sketch:type="MSShapeGroup" d="m14.25 14h-3c-0.45 0-0.75-0.311-0.75-0.778v-12.444c0-0.46689 0.3-0.778 0.75-0.778h3c0.45 0 0.75 0.31111 0.75 0.77778v12.444c0 0.467-0.3 0.778-0.75 0.778zm-2.25-1.556h1.5v-10.888l-1.5-0.0004v10.888z"/>
  </g>
 </g>
</svg>
