<?xml version="1.0" encoding="UTF-8" standalone="no"?>
<svg xmlns:sketch="http://www.bohemiancoding.com/sketch/ns" xmlns="http://www.w3.org/2000/svg" height="36px" width="172px" version="1.1" xmlns:xlink="http://www.w3.org/1999/xlink" viewBox="0 0 172 36"><!-- Generator: Sketch 3.3.2 (12043) - http://www.bohemiancoding.com/sketch -->
 <title>Untitled 5</title>
 <desc>Created with Sketch.</desc>
 <g id="Page-1" fill-rule="evenodd" sketch:type="MSPage" fill="none">
  <g id="Logo" sketch:type="MSLayerGroup">
   <rect id="Rectangle-8" sketch:type="MSShapeGroup" height="36" width="136" y="0" x="36" fill="#1A91F2"/>
   <rect id="Rectangle-8-Copy" sketch:type="MSShapeGroup" height="36" width="36" y="0" x="0" fill="#1E2837"/>
   <path id="Oval-3" sketch:type="MSShapeGroup" stroke="#fff" stroke-width="3" d="m18 7c-6.075 0-11 4.925-11 11s4.925 11 11 11 11-4.925 11-11"/>
   <path id="Codizer-Data" sketch:type="MSShapeGroup" fill="#fff" d="m53.289 15.43c-0.911 0-1.617 0.342-2.117 1.027s-0.75 1.639-0.75 2.863c0 2.547 0.956 3.821 2.867 3.821 0.802 0 1.773-0.201 2.914-0.602v2.031c-0.937 0.391-1.984 0.586-3.141 0.586-1.661 0-2.932-0.504-3.812-1.511-0.88-1.008-1.32-2.455-1.32-4.34 0-1.188 0.216-2.228 0.648-3.121 0.432-0.894 1.054-1.579 1.863-2.055 0.81-0.477 1.76-0.715 2.848-0.715 1.109 0 2.224 0.268 3.344 0.805l-0.781 1.969c-0.428-0.204-0.857-0.381-1.29-0.532-0.432-0.151-0.856-0.226-1.273-0.226zm7.055 5.187c0 0.865 0.142 1.518 0.426 1.961 0.283 0.443 0.746 0.664 1.386 0.664 0.636 0 1.093-0.22 1.371-0.66 0.279-0.44 0.418-1.095 0.418-1.965 0-0.864-0.14-1.513-0.422-1.945-0.281-0.432-0.742-0.649-1.382-0.649-0.636 0-1.094 0.215-1.375 0.645-0.282 0.43-0.422 1.079-0.422 1.949zm6.039 0c0 1.422-0.375 2.534-1.125 3.336s-1.794 1.203-3.133 1.203c-0.839 0-1.578-0.183-2.219-0.551-0.64-0.367-1.133-0.894-1.476-1.582-0.344-0.687-0.516-1.489-0.516-2.406 0-1.427 0.372-2.536 1.117-3.328s1.792-1.187 3.141-1.187c0.838 0 1.578 0.182 2.219 0.546 0.64 0.365 1.132 0.888 1.476 1.571 0.344 0.682 0.516 1.482 0.516 2.398zm4.734 4.539c-1.026 0-1.832-0.398-2.418-1.195s-0.879-1.901-0.879-3.313c0-1.432 0.298-2.548 0.895-3.347 0.596-0.8 1.418-1.199 2.465-1.199 1.099 0 1.937 0.427 2.515 1.281h0.078c-0.119-0.651-0.179-1.232-0.179-1.742v-2.797h2.39v12.156h-1.828l-0.461-1.133h-0.101c-0.542 0.86-1.367 1.289-2.477 1.289zm0.836-1.898c0.61 0 1.056-0.177 1.34-0.531 0.284-0.355 0.439-0.956 0.465-1.805v-0.258c0-0.937-0.145-1.609-0.434-2.016-0.289-0.406-0.759-0.609-1.41-0.609-0.531 0-0.944 0.225-1.238 0.676-0.294 0.45-0.442 1.105-0.442 1.965 0 0.859 0.149 1.504 0.446 1.933 0.297 0.43 0.721 0.645 1.273 0.645zm6.422-9.25c0-0.776 0.432-1.164 1.297-1.164 0.864 0 1.297 0.388 1.297 1.164 0 0.37-0.108 0.657-0.324 0.863-0.217 0.206-0.541 0.309-0.973 0.309-0.865 0-1.297-0.391-1.297-1.172zm2.484 10.992h-2.382v-8.734h2.382v8.734zm8.579 0h-6.899v-1.406l4.047-5.508h-3.805v-1.82h6.516v1.546l-3.938 5.368h4.079v1.82zm5.343-7.203c-0.505 0-0.901 0.16-1.187 0.48-0.287 0.321-0.451 0.775-0.492 1.364h3.343c-0.01-0.589-0.164-1.043-0.461-1.364-0.297-0.32-0.698-0.48-1.203-0.48zm0.336 7.359c-1.406 0-2.505-0.388-3.297-1.164-0.791-0.776-1.187-1.875-1.187-3.297 0-1.463 0.366-2.595 1.097-3.394 0.732-0.8 1.744-1.199 3.036-1.199 1.234 0 2.195 0.351 2.882 1.054 0.688 0.703 1.032 1.675 1.032 2.914v1.157h-5.633c0.026 0.677 0.226 1.205 0.601 1.585 0.375 0.381 0.901 0.571 1.579 0.571 0.526 0 1.023-0.055 1.492-0.164 0.469-0.11 0.958-0.284 1.469-0.524v1.844c-0.417 0.208-0.862 0.363-1.336 0.465-0.474 0.101-1.053 0.152-1.735 0.152zm10.373-9.054c0.33 0 0.59 0.023 0.81 0.07l-0.18 2.234c-0.2-0.052-0.43-0.078-0.71-0.078-0.76 0-1.35 0.195-1.77 0.586-0.43 0.391-0.64 0.938-0.64 1.641v4.445h-2.38v-8.734h1.8l0.35 1.468h0.12c0.27-0.489 0.64-0.884 1.1-1.183 0.46-0.3 0.96-0.449 1.5-0.449zm16.21 3.078c0 1.88-0.53 3.32-1.6 4.32s-2.62 1.5-4.64 1.5h-3.23v-11.422h3.58c1.87 0 3.31 0.492 4.35 1.477 1.03 0.984 1.54 2.359 1.54 4.125zm-2.51 0.062c0-2.453-1.09-3.68-3.25-3.68h-1.29v7.438h1.04c2.33 0 3.5-1.253 3.5-3.758zm10.24 5.758l-0.46-1.188h-0.06c-0.4 0.506-0.82 0.856-1.24 1.051-0.43 0.196-0.98 0.293-1.66 0.293-0.84 0-1.5-0.239-1.98-0.718-0.48-0.48-0.73-1.162-0.73-2.047 0-0.927 0.33-1.611 0.98-2.051s1.62-0.684 2.93-0.731l1.52-0.047v-0.382c0-0.886-0.46-1.328-1.36-1.328-0.7 0-1.52 0.21-2.46 0.632l-0.79-1.609c1-0.526 2.12-0.789 3.34-0.789 1.17 0 2.07 0.255 2.7 0.766 0.62 0.51 0.93 1.286 0.93 2.328v5.82h-1.66zm-0.7-4.047l-0.93 0.031c-0.69 0.021-1.2 0.146-1.54 0.375-0.34 0.23-0.51 0.578-0.51 1.047 0 0.672 0.39 1.008 1.16 1.008 0.55 0 0.99-0.159 1.32-0.476 0.33-0.318 0.5-0.74 0.5-1.266v-0.719zm8.5 2.305c0.41 0 0.91-0.091 1.5-0.274v1.774c-0.6 0.265-1.33 0.398-2.19 0.398-0.95 0-1.65-0.241-2.08-0.722-0.44-0.482-0.66-1.205-0.66-2.168v-4.211h-1.14v-1.008l1.32-0.797 0.68-1.844h1.53v1.86h2.44v1.789h-2.44v4.211c0 0.338 0.09 0.588 0.28 0.75 0.19 0.161 0.44 0.242 0.76 0.242zm8.81 1.742l-0.46-1.188h-0.06c-0.41 0.506-0.82 0.856-1.24 1.051-0.43 0.196-0.98 0.293-1.66 0.293-0.84 0-1.5-0.239-1.98-0.718-0.49-0.48-0.73-1.162-0.73-2.047 0-0.927 0.33-1.611 0.98-2.051s1.62-0.684 2.93-0.731l1.52-0.047v-0.382c0-0.886-0.46-1.328-1.36-1.328-0.7 0-1.52 0.21-2.46 0.632l-0.79-1.609c1-0.526 2.12-0.789 3.34-0.789 1.17 0 2.07 0.255 2.7 0.766 0.62 0.51 0.93 1.286 0.93 2.328v5.82h-1.66zm-0.7-4.047l-0.93 0.031c-0.69 0.021-1.2 0.146-1.54 0.375-0.34 0.23-0.51 0.578-0.51 1.047 0 0.672 0.38 1.008 1.16 1.008 0.55 0 0.99-0.159 1.32-0.476 0.33-0.318 0.5-0.74 0.5-1.266v-0.719z"/>
  </g>
 </g>
</svg>
