<?xml version="1.0" encoding="UTF-8" standalone="no"?>
<svg viewBox="0 0 32 38" version="1.1" xmlns="http://www.w3.org/2000/svg" xmlns:xlink="http://www.w3.org/1999/xlink" xmlns:sketch="http://www.bohemiancoding.com/sketch/ns">
    <!-- Generator: Sketch 3.3.2 (12043) - http://www.bohemiancoding.com/sketch -->
    <title>Untitled</title>
    <desc>Created with Sketch.</desc>
    <defs></defs>
    <g id="Page-1" stroke="none" stroke-width="1" fill="none" fill-rule="evenodd" sketch:type="MSPage">
        <g id="Android" sketch:type="MSLayerGroup">
            <rect id="Rectangle-38" fill="#FFFFFF" sketch:type="MSShapeGroup" x="0.5" y="14" width="4.5" height="14" rx="8"></rect>
            <rect id="Rectangle-39" fill="#FFFFFF" sketch:type="MSShapeGroup" x="27.5" y="14" width="4.5" height="14" rx="8"></rect>
            <rect id="Rectangle-41" fill="#FFFFFF" sketch:type="MSShapeGroup" x="17.5" y="24" width="4.5" height="14" rx="8"></rect>
            <rect id="Rectangle-42" fill="#FFFFFF" sketch:type="MSShapeGroup" x="9.5" y="24" width="4.5" height="14" rx="8"></rect>
            <path d="M26,12.5 C26,11.7885354 25.9176743,11.0953376 25.7615792,10.4285349 C24.7665486,6.17799221 20.7739374,3 16,3 C10.4771525,3 6,7.25329488 6,12.5 C7.45365007,12.4507869 23.2459914,12.3793472 26,12.5 Z" id="Oval-27" fill="#FFFFFF" sketch:type="MSShapeGroup"></path>
            <rect id="Rectangle-40" fill="#FFFFFF" sketch:type="MSShapeGroup" x="6" y="14" width="20" height="17" rx="2"></rect>
            <rect id="Rectangle-43" fill="#FFFFFF" sketch:type="MSShapeGroup" transform="translate(21.731010, 2.965905) rotate(30.000000) translate(-21.731010, -2.965905) " x="21.2310095" y="1.00388611" width="1" height="3.92403811" rx="8"></rect>
            <rect id="Rectangle-44" fill="#FFFFFF" sketch:type="MSShapeGroup" transform="translate(10.731010, 2.965905) rotate(-28.000000) translate(-10.731010, -2.965905) " x="10.2310095" y="1.00388611" width="1" height="3.92403811" rx="8"></rect>
            <circle id="Oval-28" fill="#20C05C" sketch:type="MSShapeGroup" cx="20.8" cy="7.8" r="0.8"></circle>
            <circle id="Oval-29" fill="#20C05C" sketch:type="MSShapeGroup" cx="11.8" cy="7.8" r="0.8"></circle>
        </g>
    </g>
</svg>