<?xml version="1.0" encoding="UTF-8" standalone="no"?>
<svg viewBox="0 0 26 31" version="1.1" xmlns="http://www.w3.org/2000/svg" xmlns:xlink="http://www.w3.org/1999/xlink" xmlns:sketch="http://www.bohemiancoding.com/sketch/ns">
    <!-- Generator: Sketch 3.3.2 (12043) - http://www.bohemiancoding.com/sketch -->
    <title>Slice 1</title>
    <desc>Created with Sketch.</desc>
    <defs></defs>
    <g id="Page-1" stroke="none" stroke-width="1" fill="none" fill-rule="evenodd" sketch:type="MSPage">
        <g id="Apple" sketch:type="MSLayerGroup" fill="#323232">
            <path d="M0.34313114,18.9360045 C1.27511815,25.1995338 5.14383595,30.2070247 7.85462549,30.6865813 C10.565415,31.166138 10.8740039,29.5581885 13.5290154,29.6232744 C16.1840269,29.6883603 15.5196684,30.6983118 19.0501822,30.6983123 C22.580696,30.6983127 25.794573,22.857296 25.794573,22.857296 C25.794573,22.857296 21.7633384,21.0905603 21.7633375,16.7615347 C21.7633367,12.4325091 24.9568832,10.9535438 24.9568832,10.9535438 C24.9568832,10.9535438 23.6396734,8.57153097 20.3518702,8.12770921 C17.064067,7.68388746 14.7450764,9.37836143 13.2880338,9.3783615 C11.8309912,9.37836157 11.14759,7.6607248 7.02668511,8.08815292 C2.90578022,8.51558103 -0.588855868,12.6724753 0.34313114,18.9360045 Z" id="Path-34" sketch:type="MSShapeGroup"></path>
            <path d="M19.9747865,0 C19.9747865,0 20.3291814,3.21663823 18.3806465,5.46142498 C16.4321117,7.70621173 13.0305729,8 13.0305729,8 C13.0305729,8 12.6496431,5.14757429 14.5770193,2.92716309 C16.5043954,0.706751895 19.9747865,0 19.9747865,0 Z" id="Path-35" sketch:type="MSShapeGroup"></path>
        </g>
    </g>
</svg>