<?xml version="1.0" encoding="UTF-8" standalone="no"?>
<svg viewBox="0 0 35 34" version="1.1" xmlns="http://www.w3.org/2000/svg" xmlns:xlink="http://www.w3.org/1999/xlink" xmlns:sketch="http://www.bohemiancoding.com/sketch/ns">
    <!-- Generator: Sketch 3.3.2 (12043) - http://www.bohemiancoding.com/sketch -->
    <title>Untitled</title>
    <desc>Created with Sketch.</desc>
    <defs></defs>
    <g id="Page-1" stroke="none" stroke-width="1" fill="none" fill-rule="evenodd" sketch:type="MSPage">
        <g id="Firefox-2" sketch:type="MSLayerGroup">
            <path d="M31.5058923,24.0003267 C33.1011305,21.566312 34.0277778,18.6618731 34.0277778,15.5428571 C34.0277778,6.95877375 27.0089089,0 18.3506944,0 C12.8433932,0 7.99936372,2.81548814 5.2030496,7.07387435 C8.25386384,3.09438772 13.2550282,0.485714286 18.4860995,0.485714286 C26.935296,0.485714286 33.7847222,7.29135858 33.7847222,15.6865472 C33.7847222,18.6159167 32.9507691,21.4941757 31.5058923,24.0003267 Z" id="Oval-12" fill="#FFFFFF" sketch:type="MSShapeGroup"></path>
            <path d="M9.95230769,6.26582533 C9.95230769,6.26582533 9.02294569,5.95210839 8.0052698,5.97620317 C6.9875939,6.000298 5.97781211,6.35992659 5.97781211,6.35992659 C5.97781211,6.35992659 5.42396644,6.21022858 4.83462196,5.2218836 C4.24527752,4.2335386 4.02635524,2.95124461 4.02635524,2.95124461 C4.02635524,2.95124461 3.18455203,4.01549827 2.63752925,5.56504324 C2.09050642,7.1145882 2.2879395,9.09675187 2.2879395,9.09675187 C2.2879395,9.09675187 1.56400357,9.95724344 0.957555341,11.5784412 C0.351107164,13.199639 0,15.2514392 0,15.2514392 C0,15.2514392 0.297353597,14.5085474 0.474039168,14.1467289 C0.65072474,13.7849103 0.880731736,13.595581 0.880731736,13.595581 C0.880731736,13.595581 0.474039168,14.4015481 0.281375991,15.9590068 C0.0887127771,17.5164655 0.22995003,19.7877865 0.22995003,19.7877865 L0.606006373,17.9805353 C0.606006373,17.9805353 0.442929048,22.8601756 4.51126977,27.5755627 C8.57961026,32.2909499 14.7177821,33.6399389 14.7177821,33.6399389 L13.7599491,32.7883319 C13.7599491,32.7883319 13.6819629,33.0031605 15.3311515,33.3400693 C16.9803401,33.676978 18.5023397,33.7571429 18.5023397,33.7571429 L17.8990072,33.2090641 C17.8990072,33.2090641 22.1815166,33.3462878 23.8810127,32.9255555 C25.5805088,32.5048233 26.7270967,31.8038018 26.7270967,31.8038018 L25.3929236,31.8487647 C25.3929236,31.8487647 27.7814227,31.3434303 29.7996978,29.6213078 C31.8179728,27.8991853 32.9143352,25.9832283 32.9143352,25.9832283 L32.1710779,26.1281033 C32.1710779,26.1281033 32.9880396,25.179616 34.0316379,22.032412 C35.6595195,17.8019795 34.7427808,12.2665877 34.7427808,12.2665877 L34.031638,13.7849105 C34.031638,13.7849105 34.3605384,11.2273782 33.5067051,8.78096562 C32.6528719,6.33455301 30.7448087,4.85165773 30.7448087,4.85165773 C30.7448087,4.85165773 30.8214334,5.56504324 30.7448087,5.56504324 C30.668184,5.56504325 31.0282777,5.55880672 30.4133699,4.83613074 C29.7984622,4.11345474 28.3528133,3.11559311 28.3528133,3.11559311 L28.5148947,3.89107746 C28.5148947,3.89107746 29.2595972,4.41463067 30.3083897,5.71158633 C31.3571821,7.00854197 32.1710787,8.32102691 32.1710787,8.32102691 C32.1710787,8.32102691 30.9404698,6.25825381 28.5148947,4.41843087 C26.0893193,2.57860825 23.614193,1.94285714 23.614193,1.94285714 C23.614193,1.94285714 26.1097272,3.77699356 27.0230821,4.76285922 C27.936437,5.74872491 28.8400621,7.45026155 28.8400621,7.45026155 C28.8400621,7.45026155 28.0763278,6.72119584 27.2793669,6.26582544 C26.482406,5.81045497 25.4667967,5.56504329 25.4667967,5.56504329 C25.4667967,5.56504329 27.5697635,7.0802911 28.5148947,10.1469345 C29.4600258,13.2135779 29.2494798,14.8619097 29.2494798,14.8619097 C29.2494798,14.8619097 28.7828769,13.9637794 28.5148947,13.5589546 C28.2469125,13.1541299 27.5618347,12.2665877 27.5618347,12.2665877 C27.5618347,12.2665877 27.8295342,14.4441788 27.8124022,16.0791444 C27.7952702,17.71411 27.3402139,19.6096857 27.3402139,19.6096857 L26.9185256,18.3731452 C26.9185256,18.3731452 26.5752612,20.6296183 25.8447878,22.032412 C25.1143142,23.4352055 23.9548866,23.7714009 23.9548866,23.7714009 L23.805095,23.1436835 C23.805095,23.1436835 23.2384295,23.5812243 22.714996,24.0266579 C22.1915625,24.4720915 21.7570595,24.886529 21.7570595,24.886529 L22.0905783,24.2944987 C22.0905783,24.2944987 20.7057648,25.0997559 18.8311054,25.0540405 C16.9564459,25.0083253 15.4050247,24.131465 15.4050247,24.131465 L16.5101875,24.0266576 L14.3650052,23.5476991 L12.7091548,22.3280277 C12.7091548,22.3280277 14.1998267,22.8826519 16.3249842,22.3280272 C18.4255868,21.7399027 19.7685083,20.4751512 19.7685083,20.4751512 C19.7685083,20.4751512 20.3723398,20.5782318 20.8984562,20.3601199 C21.5963474,19.9625131 20.8984563,19.2232496 20.8984563,19.2232496 C20.8984563,19.2232496 20.0029548,18.3886643 18.7978332,18.2998741 C17.5927116,18.211084 17.3568684,18.4591069 16.4063852,18.8635114 C15.5670303,19.1650489 13.921368,19.1808952 13.6905695,19.1364506 C12.8935908,18.9829771 13.5545017,18.9504576 13.5545017,18.9504576 L12.7110386,18.5069176 C12.7110386,18.5069176 11.9589449,18.2150549 11.405149,17.3871449 C10.8513531,16.5592349 11.0067193,15.9590065 11.0067193,15.9590065 C11.0067193,15.9590065 11.0759868,15.2088289 11.7467958,15.0631568 C11.8275658,15.045617 12.0926179,15.1717136 12.0926179,15.1717136 L11.9181491,14.9107519 C11.9181491,14.9107519 12.1558948,14.9483576 12.5388257,15.1364284 C12.9217566,15.3244992 13.254332,15.5669983 13.254332,15.5669983 C13.254332,15.5669983 13.254332,15.3430748 13.044208,15.1266791 C12.8340841,14.9102834 12.784545,14.9107519 12.784545,14.9107519 L13.3056701,15.1717136 C13.3056701,15.1717136 13.4157657,14.9261769 13.4157657,14.4743694 C13.4157657,14.0225618 13.30567,13.5589547 13.30567,13.5589547 L13.4157657,13.4048201 C13.4157657,13.4048201 12.9108218,13.0085784 12.2423578,11.1891892 C11.9950072,9.19411533 11.9856464,8.64083274 12.4303995,7.18675767 C12.8751527,5.73268262 14.2282625,4.69647645 14.2282625,4.69647645 L14.0417065,4.69647645 L14.6372326,4.36537733 C14.6372326,4.36537733 14.4958224,4.22148909 13.8859607,4.24625698 C13.6796501,4.25463572 12.8924042,4.52069226 12.8924042,4.52069226 L13.254332,4.3023182 C13.254332,4.3023182 12.131382,4.55578626 11.9527092,4.63116807 C10.9574184,5.05107996 9.95230769,6.26582533 9.95230769,6.26582533 Z" id="Path-18" fill="#FFFFFF" sketch:type="MSShapeGroup"></path>
            <path d="M12.4905816,7.52857143 C12.4905816,7.52857143 12.8247916,8.36970224 13.6155421,8.72869257 C14.6040571,9.01722694 16.0087107,8.88238346 16.0087107,8.88238346 C16.0087107,8.88238346 16.5759728,8.97765695 16.8875269,9.263379 C17.2004112,10.0345966 16.8337261,10.9431243 16.8337261,10.9431243 C16.8337261,10.9431243 15.3270451,12.0211314 14.3653795,12.4641459 C13.9101685,12.7285536 13.5121851,13.1142857 13.5121851,13.1142857 C13.5121851,13.1142857 12.4867179,11.8576079 12.225515,10.4294562 C11.964312,9.00130442 12.4905816,7.52857143 12.4905816,7.52857143 Z" id="Path-19" stroke="#FFFFFF" stroke-width="0.72" sketch:type="MSShapeGroup"></path>
            <path d="M15.7986111,8.98571429 C15.7986111,8.98571429 16.9571999,9.00435233 17.1447905,9.16866286 C17.5978812,10.2614789 16.5317957,10.9285714 16.5317957,10.9285714 C16.5317957,10.9285714 16.7967462,10.0138548 16.6280849,9.41541033 C16.4939648,9.16866286 15.7986111,8.98571429 15.7986111,8.98571429 Z" id="Path-20" stroke="#FFFFFF" stroke-width="0.72" sketch:type="MSShapeGroup"></path>
        </g>
    </g>
</svg>