<?xml version="1.0" encoding="UTF-8" standalone="no"?>
<svg width="1344px" height="829px" viewBox="0 0 1344 829" version="1.1" xmlns="http://www.w3.org/2000/svg" xmlns:xlink="http://www.w3.org/1999/xlink" xmlns:sketch="http://www.bohemiancoding.com/sketch/ns">
    <!-- Generator: Sketch 3.3.2 (12043) - http://www.bohemiancoding.com/sketch -->
    <title>Login 2</title>
    <desc>Created with Sketch.</desc>
    <defs></defs>
    <g id="Page-1" stroke="none" stroke-width="1" fill="none" fill-rule="evenodd" sketch:type="MSPage">
        <path d="M1122.5,428.5 L1090.5,429.5" id="Line" stroke="#756BCD" stroke-width="3" stroke-linecap="square" sketch:type="MSShapeGroup"></path>
        <path d="M1066.5,429.5 L1036.5,429.5" id="Line" stroke="#756BCD" stroke-width="3" stroke-linecap="square" sketch:type="MSShapeGroup"></path>
        <path d="M337.5,424 L306.5,424" id="Line" stroke="#756BCD" stroke-width="4" stroke-linecap="square" sketch:type="MSShapeGroup"></path>
        <path d="M282.5,425 L245.5,425" id="Line" stroke="#756BCD" stroke-width="4" stroke-linecap="square" sketch:type="MSShapeGroup"></path>
        <circle id="Oval-1" stroke="#756BCD" stroke-width="3" fill-opacity="0" fill="#D8D8D8" sketch:type="MSShapeGroup" cx="968" cy="431" r="68"></circle>
        <circle id="Oval-1-Copy" stroke="#756BCD" stroke-width="3" fill-opacity="0" fill="#D8D8D8" sketch:type="MSShapeGroup" cx="406" cy="435" r="68"></circle>
        <path d="M896.5,435 L724.5,435" id="Line" stroke="#756BCD" stroke-width="4" stroke-linecap="square" sketch:type="MSShapeGroup"></path>
        <circle id="Oval-1-Copy-3" stroke="#756BCD" stroke-width="3" fill-opacity="0" fill="#D8D8D8" sketch:type="MSShapeGroup" cx="156" cy="434" r="89"></circle>
        <circle id="Oval-1-Copy-2" stroke="#756BCD" stroke-width="3" fill-opacity="0" fill="#D8D8D8" sketch:type="MSShapeGroup" cx="1227" cy="438" r="89"></circle>
        <circle id="Oval-1-Copy-4" stroke="#756BCD" stroke-width="3" fill-opacity="0" fill="#D8D8D8" sketch:type="MSShapeGroup" cx="1227" cy="438" r="105"></circle>
        <circle id="Oval-6" stroke="#756BCD" stroke-width="3" fill-opacity="0" fill="#FFFFFF" sketch:type="MSShapeGroup" cx="1078.5" cy="430.5" r="11.5"></circle>
        <path d="M474.5,434.5 L688.5,434.5" id="Line" stroke="#756BCD" stroke-width="3" stroke-linecap="square" sketch:type="MSShapeGroup"></path>
        <circle id="Oval-6-Copy-2" stroke="#756BCD" stroke-width="3" sketch:type="MSShapeGroup" cx="294.5" cy="424.5" r="11.5"></circle>
        <path d="M1208.77273,364 L1170.22727,364 C1166.13182,364 1163,367.105556 1163,371.166667 L1163,399.833333 C1163,403.894444 1166.13182,407 1170.22727,407 L1208.77273,407 C1212.86818,407 1216,403.894444 1216,399.833333 L1216,371.166667 C1216,367.105556 1212.86818,364 1208.77273,364 L1208.77273,364 Z M1208.77273,368.777778 C1209.01364,368.777778 1209.25455,368.777778 1209.49545,369.016667 L1189.5,385.022222 L1169.50455,369.016667 C1169.74545,369.016667 1169.98636,368.777778 1170.22727,368.777778 L1208.77273,368.777778 L1208.77273,368.777778 Z M1208.77273,402.222222 L1170.22727,402.222222 C1168.78182,402.222222 1167.81818,401.266667 1167.81818,399.833333 L1167.81818,373.794444 L1188.05455,389.8 C1188.53636,390.038889 1189.01818,390.277778 1189.5,390.277778 C1189.98182,390.277778 1190.46364,390.038889 1190.94545,389.8 L1211.18182,373.794444 L1211.18182,399.833333 C1211.18182,401.266667 1210.21818,402.222222 1208.77273,402.222222 L1208.77273,402.222222 Z" id="Shape" fill="#444444" sketch:type="MSShapeGroup" transform="translate(1189.500000, 385.500000) rotate(29.000000) translate(-1189.500000, -385.500000) "></path>
        <path d="M1172.67273,434.685 L1174.36364,437.25 L1177.46364,437.25 L1202.82727,437.25 C1204.51818,437.25 1205.64545,438.39 1205.64545,440.1 L1205.64545,471.45 C1205.64545,473.16 1204.51818,474.3 1202.82727,474.3 L1157.73636,474.3 C1156.04545,474.3 1154.91818,473.16 1154.91818,471.45 L1154.91818,431.55 C1154.91818,429.84 1156.04545,428.7 1157.73636,428.7 L1169.00909,428.7 L1172.67273,434.685 L1172.67273,434.685 Z M1171.54545,423 L1157.45455,423 C1152.66364,423 1149,426.705 1149,431.55 L1149,471.45 C1149,476.295 1152.66364,480 1157.45455,480 L1202.54545,480 C1207.33636,480 1211,476.295 1211,471.45 L1211,440.1 C1211,435.255 1207.33636,431.55 1202.54545,431.55 L1177.18182,431.55 L1171.54545,423 L1171.54545,423 Z" id="Shape-Copy-2" fill="#444444" sketch:type="MSShapeGroup" transform="translate(1180.000000, 451.500000) rotate(-12.000000) translate(-1180.000000, -451.500000) "></path>
        <path d="M1235.24476,399.137102 C1226.57476,399.137102 1221.74073,404.629998 1221.74073,413.554998 L1221.10322,510.198262 C1221.10322,519.123262 1226.05382,522.182679 1234.72382,522.182679 L1309.42554,523.63135 C1318.09554,523.63135 1322.11841,519.29691 1322.11841,510.37191 L1322.40863,411.759031 C1322.40863,402.834031 1316.47322,399.948262 1307.80322,399.948262 L1235.24476,399.137102 Z M1318.40863,510.846214 C1318.40863,514.315495 1314.43631,518.978646 1310.91131,518.978646 L1231.61573,518.447693 C1228.09073,518.447693 1224.58228,515.300302 1224.58228,511.831021 L1225.10322,410.763782 C1225.10322,407.294501 1229.07554,402.63135 1232.60054,402.63135 L1310.91131,403.335951 C1314.43631,403.335951 1319.10322,407.294501 1319.10322,410.763782 L1318.75592,512.844211 L1318.40863,510.846214 Z M1295.67284,488.684299 L1252.47284,488.684299 C1249.23284,488.684299 1247.07284,489.884299 1247.07284,491.684299 C1247.07284,493.484299 1249.23284,494.684299 1252.47284,494.684299 L1295.67284,494.684299 C1298.91284,494.684299 1301.07284,493.484299 1301.07284,491.684299 C1301.07284,489.884299 1298.91284,488.684299 1295.67284,488.684299 L1295.67284,488.684299 Z M1295.67284,467.017632 L1252.47284,467.017632 C1249.23284,467.017632 1247.07284,468.217632 1247.07284,470.017632 C1247.07284,471.817632 1249.23284,473.017632 1252.47284,473.017632 L1295.67284,473.017632 C1298.91284,473.017632 1301.07284,471.817632 1301.07284,470.017632 C1301.07284,468.217632 1298.91284,467.017632 1295.67284,467.017632 L1295.67284,467.017632 Z M1295.67284,445.350965 L1252.47284,445.350965 C1249.23284,445.350965 1247.07284,446.550965 1247.07284,448.350965 C1247.07284,450.150965 1249.23284,451.350965 1252.47284,451.350965 L1295.67284,451.350965 C1298.91284,451.350965 1301.07284,450.150965 1301.07284,448.350965 C1301.07284,446.550965 1298.91284,445.350965 1295.67284,445.350965 L1295.67284,445.350965 Z M1252.47284,429.684299 L1274.07284,429.684299 C1277.31284,429.684299 1279.47284,428.484299 1279.47284,426.684299 C1279.47284,424.884299 1277.31284,423.684299 1274.07284,423.684299 L1252.47284,423.684299 C1249.23284,423.684299 1247.07284,424.884299 1247.07284,426.684299 C1247.07284,428.484299 1249.23284,429.684299 1252.47284,429.684299 Z M1236.75592,430.978646 C1238.96506,430.978646 1240.75592,429.187785 1240.75592,426.978646 C1240.75592,424.769507 1238.96506,422.978646 1236.75592,422.978646 C1234.54678,422.978646 1232.75592,424.769507 1232.75592,426.978646 C1232.75592,429.187785 1234.54678,430.978646 1236.75592,430.978646 Z M1236.63695,453.339009 C1238.84609,453.339009 1240.63695,451.548148 1240.63695,449.339009 C1240.63695,447.12987 1238.84609,445.339009 1236.63695,445.339009 C1234.42781,445.339009 1232.63695,447.12987 1232.63695,449.339009 C1232.63695,451.548148 1234.42781,453.339009 1236.63695,453.339009 Z M1236.51798,475.699373 C1238.72712,475.699373 1240.51798,473.908512 1240.51798,471.699373 C1240.51798,469.490234 1238.72712,467.699373 1236.51798,467.699373 C1234.30884,467.699373 1232.51798,469.490234 1232.51798,471.699373 C1232.51798,473.908512 1234.30884,475.699373 1236.51798,475.699373 Z M1236.39901,498.059736 C1238.60815,498.059736 1240.39901,496.268875 1240.39901,494.059736 C1240.39901,491.850597 1238.60815,490.059736 1236.39901,490.059736 C1234.18987,490.059736 1232.39901,491.850597 1232.39901,494.059736 C1232.39901,496.268875 1234.18987,498.059736 1236.39901,498.059736 Z" id="Shape-Copy" fill="#444444" sketch:type="MSShapeGroup" transform="translate(1271.755924, 461.384226) rotate(10.000000) translate(-1271.755924, -461.384226) "></path>
        <path d="M1005.5,429 C995.795455,429 988,436.795455 988,446.5 C988,456.204545 995.795455,464 1005.5,464 C1015.20455,464 1023,456.204545 1023,446.5 C1023,436.795455 1015.20455,429 1005.5,429 L1005.5,429 Z M1019.65909,444.909091 L1007.09091,444.909091 L1007.09091,432.340909 C1013.77273,432.977273 1019.02273,438.227273 1019.65909,444.909091 L1019.65909,444.909091 Z M1005.5,460.818182 C997.545455,460.818182 991.181818,454.454545 991.181818,446.5 C991.181818,439.181818 996.75,433.136364 1003.90909,432.340909 L1003.90909,448.090909 L1019.65909,448.090909 C1018.86364,455.25 1012.81818,460.818182 1005.5,460.818182 L1005.5,460.818182 Z" id="Shape-Copy-3" fill="#444444" sketch:type="MSShapeGroup"></path>
        <path d="M910.989074,358.093538 C910.989074,354.118472 914.20419,350.896044 918.195997,350.896044 L964.782151,350.896044 C968.762425,350.896044 971.989074,354.128086 971.989074,358.093538 L971.989074,454.69855 C971.989074,458.673616 968.773958,461.896044 964.782151,461.896044 L918.195997,461.896044 C914.215723,461.896044 910.989074,458.664002 910.989074,454.69855 L910.989074,358.093538 Z M918.67675,366.780618 L963.42675,366.780618 L963.42675,436.268423 L918.67675,436.268423 L918.67675,366.780618 Z M940.989074,454.676532 C943.491614,454.676532 945.520324,452.656353 945.520324,450.164337 C945.520324,447.67232 943.491614,445.652142 940.989074,445.652142 C938.486534,445.652142 936.457824,447.67232 936.457824,450.164337 C936.457824,452.656353 938.486534,454.676532 940.989074,454.676532 Z" id="Rectangle-2" stroke="#444444" stroke-width="3" sketch:type="MSShapeGroup" transform="translate(941.489074, 406.396044) rotate(-12.000000) translate(-941.489074, -406.396044) "></path>
        <path d="M1020,392.838384 C1017.6,392.838384 1015.4,393.848485 1014,395.666667 L1003.8,390.616162 C1004,390.010101 1004,389.40404 1004,389 C1004,388.59596 1004,387.787879 1003.8,387.383838 L1014,382.333333 C1015.4,383.949495 1017.6,385.161616 1020,385.161616 C1024.4,385.161616 1028,381.525253 1028,377.080808 C1028,372.636364 1024.4,369 1020,369 C1015.6,369 1012,372.636364 1012,377.080808 C1012,377.686869 1012,378.292929 1012.2,378.69697 L1002,383.747475 C1000.6,382.131313 998.4,380.919192 996,380.919192 C991.6,380.919192 988,384.555556 988,389 C988,393.444444 991.6,397.080808 996,397.080808 C998.4,397.080808 1000.6,396.070707 1002,394.252525 L1012.2,399.30303 C1012,399.909091 1012,400.515152 1012,400.919192 C1012,405.363636 1015.6,409 1020,409 C1024.4,409 1028,405.363636 1028,400.919192 C1028,396.474747 1024.4,392.838384 1020,392.838384 L1020,392.838384 Z M1020,372.636364 C1022.2,372.636364 1024,374.454545 1024,376.676768 C1024,378.89899 1022.2,380.717172 1020,380.717172 C1017.8,380.717172 1016,378.89899 1016,376.676768 C1016,374.454545 1017.8,372.636364 1020,372.636364 L1020,372.636364 Z M996,392.838384 C993.8,392.838384 992,391.020202 992,388.79798 C992,386.575758 993.8,384.757576 996,384.757576 C998.2,384.757576 1000,386.575758 1000,388.79798 C1000,391.020202 998.2,392.838384 996,392.838384 L996,392.838384 Z M1020,404.959596 C1017.8,404.959596 1016,403.141414 1016,400.919192 C1016,398.69697 1017.8,396.878788 1020,396.878788 C1022.2,396.878788 1024,398.69697 1024,400.919192 C1024,403.141414 1022.2,404.959596 1020,404.959596 L1020,404.959596 Z" id="Shape-Copy-4" fill="#444444" sketch:type="MSShapeGroup"></path>
        <path d="M361,393 L379.4,411.4 C380,412 380,412.6 380,412.8 C380,413.2 380,413.8 379.4,414.2 L365.2,428.4 C364.6,429 364,429 363.8,429 C363.4,429 362.8,429 362.4,428.4 L344,410 L344,393 L361,393 L361,393 Z M362.6,389 L340,389 L340,411.6 L359.6,431.2 C360.8,432.4 362.4,433 363.8,433 C365.2,433 366.8,432.4 368,431.2 L382.2,417 C384.6,414.6 384.6,410.8 382.2,408.6 L362.6,389 L362.6,389 Z M355,399 C352.2,399 350,401.2 350,404 C350,406.8 352.2,409 355,409 C357.8,409 360,406.8 360,404 C360,401.2 357.8,399 355,399 L355,399 Z M355,405 C354.4,405 354,404.6 354,404 C354,403.4 354.4,403 355,403 C355.6,403 356,403.4 356,404 C356,404.6 355.6,405 355,405 L355,405 Z" id="Shape-Copy-5" fill="#444444" sketch:type="MSShapeGroup"></path>
        <path d="M455.888889,376 L455.888889,371.666667 C455.888889,359.533333 446.477778,350 434.5,350 C422.522222,350 413.111111,359.533333 413.111111,371.666667 L413.111111,376 L396,376 L396,441 C396,448.366667 401.561111,454 408.833333,454 L460.166667,454 C467.438889,454 473,448.366667 473,441 L473,376 L455.888889,376 L455.888889,376 Z M418.984301,371.524677 C418.984301,364.15801 423.19431,355.977229 434.640577,355.957341 C446.086843,355.937453 450.015699,364.44199 450.015699,371.808656 L450.015699,376.14199 L418.984301,375.85801 L418.984301,371.524677 Z M460.853745,450.193289 L407.252133,450.524598 C404.25911,450.524598 399.675113,446.560988 399.675113,443.537882 L399.581395,379.843478 L469.418605,379.843478 C469.418605,379.843478 470.038778,437.64926 469.559181,442.634774 C469.079585,447.620288 465.251808,450.217894 460.853745,450.193289 Z" id="Shape-Copy-6" fill="#444444" sketch:type="MSShapeGroup" transform="translate(434.500000, 402.000000) rotate(10.000000) translate(-434.500000, -402.000000) "></path>
        <g id="Group" sketch:type="MSLayerGroup" transform="translate(118.000000, 466.000000) rotate(-8.000000) translate(-118.000000, -466.000000) translate(54.000000, 418.000000)">
            <rect id="Rectangle-4" stroke="#444444" stroke-width="4.32" sketch:type="MSShapeGroup" x="0" y="0" width="128" height="96" rx="8.64"></rect>
            <path d="M3.79661017,24.8089888 L125.288136,24.8089888" id="Line" stroke="#444444" stroke-width="4.32" stroke-linecap="square" sketch:type="MSShapeGroup"></path>
            <ellipse id="Oval-14" fill="#444444" sketch:type="MSShapeGroup" cx="11.3898305" cy="13.4831461" rx="2.71186441" ry="2.69662921"></ellipse>
            <ellipse id="Oval-14-Copy" fill="#444444" sketch:type="MSShapeGroup" cx="20.0677966" cy="13.4831461" rx="2.71186441" ry="2.69662921"></ellipse>
            <ellipse id="Oval-14-Copy-2" fill="#444444" sketch:type="MSShapeGroup" cx="28.7457627" cy="13.4831461" rx="2.71186441" ry="2.69662921"></ellipse>
        </g>
        <path d="M240.75,412.25 C244.858333,412.25 248,409.108333 248,405 C248,400.891667 244.858333,397.75 240.75,397.75 L239.541667,397.75 C239.3,397.025 239.058333,396.3 238.575,395.575 L239.541667,394.608333 C242.441667,391.708333 242.441667,387.116667 239.541667,384.458333 C236.641667,381.558333 232.05,381.558333 229.391667,384.458333 L228.425,385.425 C227.7,385.183333 226.975,384.7 226.25,384.458333 L226.25,383.25 C226.25,379.141667 223.108333,376 219,376 C214.891667,376 211.75,379.141667 211.75,383.25 L211.75,384.458333 C211.025,384.7 210.3,384.941667 209.575,385.425 L208.608333,384.458333 C205.708333,381.558333 201.116667,381.558333 198.458333,384.458333 C195.558333,387.358333 195.558333,391.95 198.458333,394.608333 L199.425,395.575 C199.183333,396.3 198.7,397.025 198.458333,397.75 L197.25,397.75 C193.141667,397.75 190,400.891667 190,405 C190,409.108333 193.141667,412.25 197.25,412.25 L198.458333,412.25 C198.7,412.975 198.941667,413.7 199.425,414.425 L198.458333,415.391667 C195.558333,418.291667 195.558333,422.883333 198.458333,425.541667 C201.358333,428.441667 205.95,428.441667 208.608333,425.541667 L209.575,424.575 C210.3,424.816667 211.025,425.3 211.75,425.541667 L211.75,426.75 C211.75,430.858333 214.891667,434 219,434 C223.108333,434 226.25,430.858333 226.25,426.75 L226.25,425.541667 C226.975,425.3 227.7,425.058333 228.425,424.575 L229.391667,425.541667 C232.291667,428.441667 236.883333,428.441667 239.541667,425.541667 C242.441667,422.641667 242.441667,418.05 239.541667,415.391667 L238.575,414.425 C238.816667,413.7 239.3,412.975 239.541667,412.25 L240.75,412.25 L240.75,412.25 Z M235.675,407.416667 C235.191667,410.316667 234.225,412.975 232.533333,415.15 L235.916667,418.533333 C236.883333,419.5 236.883333,420.95 235.916667,421.916667 C234.95,422.883333 233.5,422.883333 232.533333,421.916667 L232.533333,421.916667 L229.15,418.533333 C226.975,420.225 224.316667,421.433333 221.416667,421.675 L221.416667,426.75 C221.416667,428.2 220.45,429.166667 219,429.166667 C217.55,429.166667 216.583333,428.2 216.583333,426.75 L216.583333,421.675 C213.683333,421.191667 211.025,420.225 208.85,418.533333 L205.466667,421.916667 C204.5,422.883333 203.05,422.883333 202.083333,421.916667 C201.116667,420.95 201.116667,419.5 202.083333,418.533333 L202.083333,418.533333 L205.466667,415.15 C203.775,412.975 202.566667,410.316667 202.325,407.416667 L197.25,407.416667 C195.8,407.416667 194.833333,406.45 194.833333,405 C194.833333,403.55 195.8,402.583333 197.25,402.583333 L202.325,402.583333 C202.808333,399.683333 203.775,397.025 205.466667,394.85 L202.083333,391.466667 C201.116667,390.5 201.116667,389.05 202.083333,388.083333 C203.05,387.116667 204.5,387.116667 205.466667,388.083333 L205.466667,388.083333 L208.85,391.466667 C211.025,389.775 213.683333,388.566667 216.583333,388.325 L216.583333,383.25 C216.583333,381.8 217.55,380.833333 219,380.833333 C220.45,380.833333 221.416667,381.8 221.416667,383.25 L221.416667,388.325 C224.316667,388.808333 226.975,389.775 229.15,391.466667 L232.533333,388.083333 C233.5,387.116667 234.95,387.116667 235.916667,388.083333 C236.883333,389.05 236.883333,390.5 235.916667,391.466667 L235.916667,391.466667 L232.533333,394.85 C234.225,397.025 235.433333,399.683333 235.675,402.583333 L240.75,402.583333 C242.2,402.583333 243.166667,403.55 243.166667,405 C243.166667,406.45 242.2,407.416667 240.75,407.416667 L235.675,407.416667 L235.675,407.416667 Z M219,395.333333 C213.683333,395.333333 209.333333,399.683333 209.333333,405 C209.333333,410.316667 213.683333,414.666667 219,414.666667 C224.316667,414.666667 228.666667,410.316667 228.666667,405 C228.666667,399.683333 224.316667,395.333333 219,395.333333 L219,395.333333 Z M219,409.833333 C216.341667,409.833333 214.166667,407.658333 214.166667,405 C214.166667,402.341667 216.341667,400.166667 219,400.166667 C221.658333,400.166667 223.833333,402.341667 223.833333,405 C223.833333,407.658333 221.658333,409.833333 219,409.833333 L219,409.833333 Z" id="Shape" fill="#444444" sketch:type="MSShapeGroup"></path>
        <path d="M127,349 C114.954545,349 102,351.954545 102,358.090909 L102,389.909091 C102,396.045455 114.954545,399 127,399 C139.045455,399 152,396.045455 152,389.909091 L152,358.090909 C152,351.954545 139.045455,349 127,349 L127,349 Z M127,353.545455 C140.181818,353.545455 147,356.727273 147.454545,358.090909 C147,359.454545 140.181818,362.636364 127,362.636364 C113.818182,362.636364 107,359.454545 106.545455,358.090909 C107,356.727273 113.818182,353.545455 127,353.545455 L127,353.545455 Z M106.545455,363.545455 C111.318182,366.045455 119.272727,367.181818 127,367.181818 C134.727273,367.181818 142.681818,366.045455 147.454545,363.545455 L147.454545,374 C147,375.363636 140.181818,378.545455 127,378.545455 C113.590909,378.545455 107,375.136364 106.545455,374 L106.545455,363.545455 L106.545455,363.545455 Z M127,394.454545 C113.590909,394.454545 107,391.045455 106.545455,389.909091 L106.545455,379.454545 C111.318182,381.954545 119.272727,383.090909 127,383.090909 C134.727273,383.090909 142.681818,381.954545 147.454545,379.454545 L147.454545,389.909091 C147,391.045455 140.409091,394.454545 127,394.454545 L127,394.454545 Z" id="Shape" fill="#444444" sketch:type="MSShapeGroup"></path>
        <path d="M403.23102,461.770389 C399.539046,458.076537 393.439262,458.076537 389.747289,461.770389 L387.5,464.018821 L385.252711,461.770389 C381.560738,458.076537 375.460954,458.076537 371.76898,461.770389 C368.077007,465.464241 368.077007,471.567127 371.76898,475.260979 L374.016269,477.50941 L387.5,491 L400.983731,477.50941 L403.23102,475.260979 C406.922993,471.567127 406.922993,465.624843 403.23102,461.770389 L403.23102,461.770389 Z M396.649675,477.670013 L387.660521,486.663739 L378.671367,477.670013 L374.17679,473.173149 C371.76898,470.603513 371.76898,466.588457 374.17679,464.179423 C376.584599,461.609787 380.597614,461.609787 383.165944,464.179423 L387.660521,468.676286 L392.155098,464.179423 C394.562907,461.609787 398.575922,461.609787 401.144252,464.179423 C403.552061,466.749059 403.552061,470.764115 401.144252,473.173149 L396.649675,477.670013 L396.649675,477.670013 Z" id="Shape" fill="#444444" sketch:type="MSShapeGroup"></path>
        <path d="M966.5,501.5 L966.5,522.5" id="Line-Copy" stroke="#756BCD" stroke-width="3" stroke-linecap="square" sketch:type="MSShapeGroup"></path>
        <circle id="Oval-6-Copy" stroke="#756BCD" stroke-width="3" sketch:type="MSShapeGroup" cx="966.5" cy="535.5" r="11.5"></circle>
    </g>
</svg>