<svg viewBox="0 0 225 35" xmlns="http://www.w3.org/2000/svg" xmlns:xlink="http://www.w3.org/1999/xlink"><defs><path id="0" d="m34.57.135c0 0-2.3.89-3.458 1.632-1.158.742-1.999 1.462-1.999 1.462l5.456-3.094" stroke="#000" stroke-width="1.2"/></defs><g fill="none" fill-rule="evenodd"><g transform="translate(0 1)"><path d="m.071 18.809l14.573 14.966 16.712-16.677 1.103-10.895-5.433-5.583-10.8 1.209-16.15 16.98m24.635-7.166c2.209 0 4-1.791 4-4 0-2.209-1.791-4-4-4-2.209 0-4 1.791-4 4 0 2.209 1.791 4 4 4" fill="#000"/><path d="m32.389 6.115c0 0-1.113.646-1.957.949-.845.303-1.929.43-1.929.43" stroke="#fff" stroke-width="1.2"/><use xlink:href="#0"/><path d="m20.02 26.985l4.367 4.493 13.594-13.667v-6.168" stroke="#000" stroke-width="1.2"/><path d="m13.967 25.97v-1.494c-.742-.094-1.345-.261-1.809-.502-.464-.241-.866-.629-1.204-1.166-.338-.537-.534-1.193-.589-1.967l1.492-.282c.115.802.319 1.392.61 1.768.418.531.918.827 1.5.888v-4.756c-.61-.116-1.234-.354-1.871-.714-.473-.266-.837-.634-1.092-1.104-.256-.47-.383-1-.383-1.602 0-1.063.374-1.923 1.121-2.582.5-.443 1.242-.714 2.226-.813v-.714h.874v.714c.863.083 1.547.338 2.053.764.648.542 1.039 1.287 1.171 2.233l-1.533.232c-.088-.587-.271-1.036-.548-1.349-.278-.313-.658-.519-1.142-.618v4.308c.747.188 1.242.335 1.484.44.462.205.838.454 1.129.747.291.293.515.642.672 1.046.157.404.235.841.235 1.312 0 1.035-.327 1.898-.981 2.59-.654.692-1.5 1.062-2.539 1.112v1.511h-.874m0-13.08c-.577.089-1.032.321-1.364.697-.332.376-.499.822-.499 1.336 0 .509.142.935.425 1.278.283.343.763.617 1.438.822v-4.134m.874 10.326c.577-.072 1.054-.324 1.43-.755.376-.432.565-.966.565-1.602 0-.542-.133-.978-.4-1.307-.267-.329-.798-.624-1.595-.884v4.549" fill="#fff" transform="matrix(.70711.70711-.70711.70711 17.252-4.752)"/><path d="m35.34 5.431c0 0-2.918 2.09-4.195 2.582-1.276.492-3.948.763-3.948.763" stroke="#000"/><path d="m50.8 17.8c0-.853.15-1.703.45-2.55.3-.847.74-1.607 1.32-2.28.58-.673 1.29-1.217 2.13-1.63.84-.413 1.793-.62 2.86-.62 1.267 0 2.353.287 3.26.86.907.573 1.58 1.32 2.02 2.24l-1.42.92c-.213-.453-.47-.833-.77-1.14-.3-.307-.627-.553-.98-.74-.353-.187-.717-.32-1.09-.4-.373-.08-.74-.12-1.1-.12-.787 0-1.483.163-2.09.49-.607.327-1.117.753-1.53 1.28-.413.527-.723 1.12-.93 1.78-.207.66-.31 1.323-.31 1.99 0 .747.123 1.457.37 2.13.247.673.59 1.27 1.03 1.79.44.52.96.933 1.56 1.24.6.307 1.253.46 1.96.46.373 0 .757-.047 1.15-.14.393-.093.77-.243 1.13-.45.36-.207.697-.467 1.01-.78.313-.313.57-.69.77-1.13l1.5.82c-.227.533-.543 1-.95 1.41-.407.407-.867.75-1.38 1.03-.513.28-1.057.493-1.63.64-.573.147-1.133.22-1.68.22-.973 0-1.867-.213-2.68-.64-.813-.427-1.517-.983-2.11-1.67-.593-.687-1.053-1.467-1.38-2.34-.327-.873-.49-1.763-.49-2.67m18.78 7.4c-.787 0-1.503-.147-2.15-.44-.647-.293-1.2-.687-1.66-1.18-.46-.493-.817-1.067-1.07-1.72-.253-.653-.38-1.34-.38-2.06 0-.733.13-1.427.39-2.08.26-.653.62-1.227 1.08-1.72.46-.493 1.013-.887 1.66-1.18.647-.293 1.357-.44 2.13-.44.773 0 1.487.147 2.14.44.653.293 1.21.687 1.67 1.18.46.493.82 1.067 1.08 1.72.26.653.39 1.347.39 2.08 0 .72-.127 1.407-.38 2.06-.253.653-.613 1.227-1.08 1.72-.467.493-1.023.887-1.67 1.18-.647.293-1.363.44-2.15.44m-3.46-5.38c0 .547.09 1.053.27 1.52.18.467.427.873.74 1.22.313.347.68.62 1.1.82.42.2.87.3 1.35.3.48 0 .93-.1 1.35-.3.42-.2.79-.477 1.11-.83.32-.353.57-.767.75-1.24.18-.473.27-.983.27-1.53 0-.533-.09-1.037-.27-1.51-.18-.473-.43-.887-.75-1.24-.32-.353-.69-.63-1.11-.83-.42-.2-.87-.3-1.35-.3-.48 0-.93.103-1.35.31-.42.207-.787.487-1.1.84-.313.353-.56.767-.74 1.24-.18.473-.27.983-.27 1.53m15.14 5.38c-.72 0-1.387-.147-2-.44-.613-.293-1.14-.687-1.58-1.18-.44-.493-.783-1.067-1.03-1.72-.247-.653-.37-1.34-.37-2.06 0-.733.117-1.43.35-2.09.233-.66.56-1.237.98-1.73.42-.493.92-.883 1.5-1.17.58-.287 1.217-.43 1.91-.43.84 0 1.59.22 2.25.66.66.44 1.183.973 1.57 1.6v-6.24h1.76v12.44c0 .413.187.627.56.64v1.52c-.147.027-.277.047-.39.06-.113.013-.217.02-.31.02-.4 0-.72-.103-.96-.31-.24-.207-.367-.457-.38-.75l-.04-.98c-.413.68-.963 1.21-1.65 1.59-.687.38-1.41.57-2.17.57m.42-1.52c.32 0 .65-.06.99-.18.34-.12.66-.287.96-.5.3-.213.56-.463.78-.75.22-.287.363-.59.43-.91v-3c-.12-.333-.3-.65-.54-.95-.24-.3-.51-.56-.81-.78-.3-.22-.62-.393-.96-.52-.34-.127-.677-.19-1.01-.19-.52 0-.99.11-1.41.33-.42.22-.78.513-1.08.88-.3.367-.53.787-.69 1.26-.16.473-.24.957-.24 1.45 0 .52.093 1.017.28 1.49.187.473.44.883.76 1.23.32.347.697.623 1.13.83.433.207.903.31 1.41.31m7.88 1.32v-10.44h1.76v10.44h-1.76m0-12.4v-2.2h1.76v2.2h-1.76m3.68 11.26l6.68-8.02h-6.5v-1.28h8.38v1.14l-6.64 8.02h6.66v1.28h-8.58v-1.14m15.24 1.34c-.787 0-1.507-.143-2.16-.43-.653-.287-1.213-.677-1.68-1.17-.467-.493-.83-1.07-1.09-1.73-.26-.66-.39-1.357-.39-2.09 0-.733.13-1.427.39-2.08.26-.653.627-1.227 1.1-1.72.473-.493 1.037-.883 1.69-1.17.653-.287 1.373-.43 2.16-.43.787 0 1.503.147 2.15.44.647.293 1.197.683 1.65 1.17.453.487.803 1.053 1.05 1.7.247.647.37 1.317.37 2.01 0 .147-.003.28-.01.4-.007.12-.017.213-.03.28h-8.66c.04.52.16.993.36 1.42.2.427.46.793.78 1.1.32.307.683.547 1.09.72.407.173.837.26 1.29.26.32 0 .633-.043.94-.13.307-.087.593-.203.86-.35.267-.147.503-.327.71-.54.207-.213.363-.453.47-.72l1.52.42c-.173.387-.41.74-.71 1.06-.3.32-.647.597-1.04.83-.393.233-.83.417-1.31.55-.48.133-.98.2-1.5.2m3.58-6.12c-.04-.493-.163-.95-.37-1.37-.207-.42-.467-.777-.78-1.07-.313-.293-.677-.523-1.09-.69-.413-.167-.853-.25-1.32-.25-.467 0-.907.083-1.32.25-.413.167-.777.4-1.09.7-.313.3-.567.657-.76 1.07-.193.413-.31.867-.35 1.36h7.08m9.1-2.98c-.88.027-1.657.253-2.33.68-.673.427-1.15 1.02-1.43 1.78v6.44h-1.76v-10.44h1.64v2.42c.36-.72.833-1.317 1.42-1.79.587-.473 1.213-.71 1.88-.71h.34c.093 0 .173.007.24.02v1.6m15.64-2.94c-.92-1.027-2.22-1.54-3.9-1.54-1.387 0-2.397.263-3.03.79-.633.527-.95 1.237-.95 2.13 0 .453.08.833.24 1.14.16.307.41.563.75.77.34.207.773.387 1.3.54.527.153 1.15.303 1.87.45.773.16 1.467.337 2.08.53.613.193 1.137.437 1.57.73.433.293.767.653 1 1.08.233.427.35.953.35 1.58 0 .627-.123 1.173-.37 1.64-.247.467-.593.857-1.04 1.17-.447.313-.98.55-1.6.71-.62.16-1.31.24-2.07.24-2.213 0-4.087-.707-5.62-2.12l.54-.82c.6.627 1.333 1.123 2.2 1.49.867.367 1.84.55 2.92.55 1.24 0 2.21-.227 2.91-.68.7-.453 1.05-1.14 1.05-2.06 0-.467-.09-.863-.27-1.19-.18-.327-.457-.61-.83-.85-.373-.24-.837-.447-1.39-.62-.553-.173-1.203-.34-1.95-.5-.76-.16-1.43-.33-2.01-.51-.58-.18-1.07-.407-1.47-.68-.4-.273-.7-.603-.9-.99-.2-.387-.3-.873-.3-1.46 0-.64.123-1.207.37-1.7.247-.493.59-.91 1.03-1.25.44-.34.967-.597 1.58-.77.613-.173 1.293-.26 2.04-.26.92 0 1.74.137 2.46.41.72.273 1.373.69 1.96 1.25l-.52.8m12.06 11.84h-1v-5.8c0-1.293-.22-2.26-.66-2.9-.44-.64-1.08-.96-1.92-.96-.427 0-.847.08-1.26.24-.413.16-.797.387-1.15.68-.353.293-.663.637-.93 1.03-.267.393-.46.817-.58 1.27v6.44h-1v-14.6h1v6.68c.427-.813 1.017-1.46 1.77-1.94.753-.48 1.563-.72 2.43-.72.573 0 1.067.107 1.48.32.413.213.757.52 1.03.92.273.4.473.883.6 1.45.127.567.19 1.203.19 1.91v5.98m7.34.2c-.733 0-1.41-.143-2.03-.43-.62-.287-1.157-.677-1.61-1.17-.453-.493-.807-1.067-1.06-1.72-.253-.653-.38-1.34-.38-2.06 0-.733.13-1.427.39-2.08.26-.653.62-1.227 1.08-1.72.46-.493.997-.883 1.61-1.17.613-.287 1.28-.43 2-.43.72 0 1.39.143 2.01.43.62.287 1.16.677 1.62 1.17.46.493.82 1.067 1.08 1.72.26.653.39 1.347.39 2.08 0 .72-.13 1.407-.39 2.06-.26.653-.617 1.227-1.07 1.72-.453.493-.993.883-1.62 1.17-.627.287-1.3.43-2.02.43m-4.06-5.34c0 .613.107 1.19.32 1.73.213.54.503 1.01.87 1.41.367.4.797.717 1.29.95.493.233 1.02.35 1.58.35.56 0 1.087-.117 1.58-.35.493-.233.923-.557 1.29-.97.367-.413.66-.89.88-1.43.22-.54.33-1.123.33-1.75 0-.613-.11-1.19-.33-1.73-.22-.54-.513-1.013-.88-1.42-.367-.407-.797-.73-1.29-.97-.493-.24-1.02-.36-1.58-.36-.547 0-1.067.12-1.56.36-.493.24-.927.567-1.3.98-.373.413-.667.897-.88 1.45-.213.553-.32 1.137-.32 1.75m16.58 5.34c-.893 0-1.687-.237-2.38-.71-.693-.473-1.253-1.05-1.68-1.73v6.5h-1v-14.66h.9v2.08c.427-.667.993-1.21 1.7-1.63.707-.42 1.46-.63 2.26-.63.72 0 1.383.153 1.99.46.607.307 1.13.71 1.57 1.21.44.5.783 1.077 1.03 1.73.247.653.37 1.32.37 2 0 .72-.113 1.407-.34 2.06-.227.653-.55 1.227-.97 1.72-.42.493-.923.883-1.51 1.17-.587.287-1.233.43-1.94.43m-.22-.9c.6 0 1.143-.127 1.63-.38.487-.253.903-.59 1.25-1.01.347-.42.613-.9.8-1.44.187-.54.28-1.09.28-1.65 0-.6-.107-1.17-.32-1.71-.213-.54-.507-1.017-.88-1.43-.373-.413-.813-.743-1.32-.99-.507-.247-1.047-.37-1.62-.37-.36 0-.747.077-1.16.23-.413.153-.8.36-1.16.62-.36.26-.663.557-.91.89-.247.333-.39.687-.43 1.06v3.42c.16.387.373.747.64 1.08.267.333.567.627.9.88.333.253.697.45 1.09.59.393.14.797.21 1.21.21" fill="#000"/></g><text font-family="Raleway" font-size="16" font-weight="260" fill="#000"><tspan x="178" y="26">- 2015</tspan></text></g></svg>