<svg viewBox="0 0 193 389" xmlns="http://www.w3.org/2000/svg" xmlns:xlink="http://www.w3.org/1999/xlink"><defs><rect id="2" x=".5" width="184" height="381" rx="26"/><path d="m159.49 48.17v.225h.925v2.6h.315v-3.5h-.255c-.023.16-.063.284-.118.373-.055.088-.123.154-.205.197-.082.043-.178.071-.29.083-.112.012-.236.019-.372.022m3.685-.705c-.253 0-.46.056-.62.168-.16.112-.284.254-.373.427-.088.173-.148.367-.18.58-.032.213-.048.423-.048.63 0 .203.016.412.048.625.032.213.092.407.18.58.088.173.212.315.373.425.16.11.367.165.62.165.257 0 .464-.055.623-.165.158-.11.282-.252.37-.425.088-.173.148-.367.18-.58.032-.213.047-.423.047-.63 0-.203-.016-.412-.047-.625-.032-.213-.092-.407-.18-.58-.088-.173-.212-.316-.37-.427-.158-.112-.366-.168-.623-.168m0 .265c.2 0 .36.052.48.155.12.103.211.232.273.385.062.153.102.32.122.5.02.18.03.345.03.495 0 .153-.01.319-.03.497-.02.178-.061.345-.122.5-.062.155-.152.284-.273.388-.12.103-.28.155-.48.155-.2 0-.36-.052-.48-.155-.12-.103-.211-.232-.273-.388-.062-.155-.102-.322-.123-.5-.02-.178-.03-.344-.03-.497 0-.15.01-.315.03-.495.02-.18.061-.347.123-.5.062-.153.152-.282.273-.385.12-.103.28-.155.48-.155m2.78-.265c-.253 0-.46.056-.62.168-.16.112-.284.254-.373.427-.088.173-.148.367-.18.58-.032.213-.048.423-.048.63 0 .203.016.412.048.625.032.213.092.407.18.58.088.173.212.315.373.425.16.11.367.165.62.165.257 0 .464-.055.623-.165.158-.11.282-.252.37-.425.088-.173.148-.367.18-.58.032-.213.047-.423.047-.63 0-.203-.016-.412-.047-.625-.032-.213-.092-.407-.18-.58-.088-.173-.212-.316-.37-.427-.158-.112-.366-.168-.623-.168m0 .265c.2 0 .36.052.48.155.12.103.211.232.272.385.062.153.103.32.123.5.02.18.03.345.03.495 0 .153-.01.319-.03.497-.02.178-.061.345-.123.5-.062.155-.152.284-.272.388-.12.103-.28.155-.48.155-.2 0-.36-.052-.48-.155-.12-.103-.211-.232-.273-.388-.062-.155-.102-.322-.123-.5-.02-.178-.03-.344-.03-.497 0-.15.01-.315.03-.495.02-.18.061-.347.123-.5.062-.153.152-.282.273-.385.12-.103.28-.155.48-.155m2.53-.265c-.14 0-.261.024-.362.072-.102.048-.184.115-.248.2-.063.085-.11.185-.14.3-.03.115-.045.239-.045.373 0 .133.015.257.045.373.03.115.077.215.14.3.063.085.146.152.248.2.102.048.222.072.362.072.14 0 .261-.024.363-.072.102-.048.184-.115.248-.2.063-.085.11-.185.14-.3.03-.115.045-.239.045-.373 0-.133-.015-.257-.045-.373-.03-.115-.077-.215-.14-.3-.063-.085-.146-.152-.248-.2-.102-.048-.222-.072-.363-.072m2.195 1.94c.103 0 .189.022.257.068.068.045.123.103.162.175.04.072.068.15.085.235.017.085.025.167.025.247 0 .08-.008.162-.025.245-.017.083-.045.16-.085.23-.04.07-.094.127-.162.172-.068.045-.154.068-.257.068-.107 0-.194-.022-.263-.068-.068-.045-.123-.102-.162-.172-.04-.07-.067-.147-.083-.23-.015-.083-.022-.165-.022-.245 0-.08.007-.162.022-.247.015-.085.043-.163.083-.235.04-.072.094-.13.162-.175.068-.045.156-.068.263-.068m0-.225c-.14 0-.261.024-.363.072-.102.048-.184.115-.248.2-.063.085-.11.185-.14.3-.03.115-.045.239-.045.373 0 .133.015.257.045.372.03.115.077.215.14.3.063.085.146.151.248.197.102.047.222.07.363.07.14 0 .261-.023.362-.07.102-.047.184-.112.248-.197.063-.085.11-.185.14-.3.03-.115.045-.239.045-.372 0-.133-.015-.257-.045-.373-.03-.115-.077-.215-.14-.3-.063-.085-.146-.152-.248-.2-.102-.048-.222-.072-.362-.072m-.12-1.81l-2.265 3.79h.24l2.26-3.79h-.235m-2.075.32c.103 0 .189.022.258.068.068.045.123.103.162.175.04.072.068.15.085.235.017.085.025.167.025.248 0 .08-.008.162-.025.245-.017.083-.045.16-.085.23-.04.07-.094.127-.162.172-.068.045-.154.067-.258.067-.107 0-.194-.022-.262-.067-.068-.045-.123-.102-.162-.172-.04-.07-.067-.147-.083-.23-.015-.083-.023-.165-.023-.245 0-.08.008-.162.023-.248.015-.085.042-.163.083-.235.04-.072.094-.13.162-.175.068-.045.156-.068.262-.068" id="3" fill="#000"/><linearGradient x1="100%" y1="47.1498076%" x2="0%" y2="47.1498072%" id="0"><stop stop-color="#373737" offset="0%"/><stop offset="1.27591422%"/><stop offset="46.4862826%"/><stop offset="98.5717733%"/><stop stop-color="#373737" offset="100%"/></linearGradient><linearGradient x1="-7.88255774%" y1="26.6065863%" x2="100%" y2="59.0637099%" id="1"><stop stop-color="#717171" stop-opacity=".5" offset="0%"/><stop stop-color="#494949" stop-opacity=".5" offset="21.2716302%"/><stop stop-color="#303030" stop-opacity=".5" offset="22.416459%"/><stop stop-opacity=".5" offset="100%"/></linearGradient></defs><g fill="none" fill-rule="evenodd"><g transform="translate(0 4)"><g transform="translate(4)"><g><use stroke="#ff435a" stroke-width="3" fill="url(#0)" xlink:href="#2"/><use stroke="#000" fill="url(#1)" xlink:href="#2"/></g><path fill="#fff" d="m9 42h167v295h-167z"/><circle stroke-width="2" fill="#000" cx="92.5" cy="356.5" r="12.5"/><g stroke-linecap="square"><path d="m9.5 83.5h166" stroke="#d6d6d8"/><g stroke="#c4c4c4"><path d="m175.5 329.5h-166"/><path d="m175.5 255.5h-166"/></g></g><path d="m22.733 60.57l-7.408 7.263 7.387 6.464" stroke="#1a91f2" stroke-width="1.5"/><g stroke="#d5d5d5" stroke-linecap="square" stroke-width="4"><path d="m20.5 320h34"/><path d="m75.5 320h34"/><path d="m129.5 320h34"/></g><g stroke="#1a91f2"><circle cx="159.5" cy="240.5" r="6.5"/><path d="m135.5 247c3.59 0 6.5-2.91 6.5-6.5 0-3.59-2.91-6.5-6.5-6.5-3.59 0-6.5 2.91-6.5 6.5 0 3.59 2.91 6.5 6.5 6.5"/><path d="m157.98 236.35l4.445 4.229-4.2 3.55"/><path d="m136.98 236.96l-4.109 3.648 4.123 3.677"/><g stroke-linecap="square"><path d="m168.5 64.5h-10"/><path d="m155.5 64.5h-2"/><path d="m155.5 68.5h-2"/><path d="m155.5 72.5h-2"/><path d="m168.5 68.5h-10"/><path d="m168.5 72.5h-10"/></g></g><g stroke="#c4c4c4" stroke-linecap="square"><path d="m64.5 255.5v73"/><path d="m120.5 255.5v73"/></g><path fill="#fff" d="m9 83h167v30h-167z"/><g stroke="#ff435a"><rect x="13" y="87" width="160" height="19" rx="4"/><rect fill="#ff435a" x="13" y="87" width="86" height="19" rx="4"/></g><rect fill="#fff" x="168" y="310" width="7" height="4" rx="3.5" ry="2"/><path d="m16.846 244v-6.39h2.628c.27 0 .519.057.747.171.228.114.424.265.59.454.165.189.294.402.387.639.093.237.139.475.139.715 0 .258-.043.507-.131.747-.087.24-.21.453-.369.639-.159.186-.348.334-.567.446-.219.111-.463.166-.733.166h-2.232v2.412h-.459m.459-2.835h2.205c.21 0 .399-.043.567-.13.168-.087.31-.204.427-.351.117-.147.207-.315.27-.504.063-.189.095-.385.095-.589 0-.21-.037-.409-.113-.599-.075-.189-.177-.355-.306-.5-.129-.144-.279-.258-.45-.342-.171-.084-.352-.126-.544-.126h-2.151v3.141m7.713 2.88c-.444 0-.849-.093-1.215-.279-.366-.186-.681-.429-.945-.729-.264-.3-.468-.645-.612-1.035-.144-.39-.216-.789-.216-1.197 0-.426.076-.834.229-1.224.153-.39.363-.735.63-1.035.267-.3.583-.538.949-.715.366-.177.762-.266 1.188-.266.444 0 .849.094 1.215.284.366.189.679.436.941.743.261.306.463.652.607 1.04.144.387.216.778.216 1.174 0 .432-.076.843-.23 1.233-.153.39-.363.733-.63 1.03-.267.297-.582.534-.945.711-.363.177-.757.265-1.183.265m-2.529-3.24c0 .366.061.718.184 1.058.123.339.297.639.522.9.225.261.492.469.801.626.309.156.649.234 1.021.234.384 0 .73-.081 1.04-.243.309-.162.574-.376.796-.643.222-.267.393-.568.513-.905.12-.336.18-.678.18-1.026 0-.366-.063-.718-.189-1.058-.126-.339-.301-.639-.527-.9-.225-.261-.492-.469-.801-.625-.309-.156-.646-.234-1.012-.234-.384 0-.732.081-1.044.243-.312.162-.577.376-.797.644-.219.267-.388.568-.508.904-.12.336-.18.678-.18 1.026m6.795 3.195v-6.39h2.628c.27 0 .519.057.747.171.228.114.424.265.59.454.165.189.294.402.387.639.093.237.139.475.139.715 0 .258-.043.507-.13.747-.087.24-.21.453-.369.639-.159.186-.348.334-.567.446-.219.111-.463.166-.733.166h-2.232v2.412h-.459m.459-2.835h2.205c.21 0 .399-.043.567-.13.168-.087.31-.204.428-.351.117-.147.207-.315.27-.504.063-.189.095-.385.095-.589 0-.21-.037-.409-.113-.599-.075-.189-.177-.355-.306-.5-.129-.144-.279-.258-.45-.342-.171-.084-.352-.126-.544-.126h-2.151v3.141m7.695 2.457c.432 0 .79-.081 1.075-.243.285-.162.511-.375.679-.639.168-.264.286-.564.355-.9.069-.336.104-.675.104-1.017v-3.213h.459v3.213c0 .426-.046.834-.139 1.224-.093.39-.244.733-.454 1.03-.21.297-.484.532-.824.707-.339.174-.754.261-1.246.261-.504 0-.927-.091-1.269-.274-.342-.183-.616-.426-.823-.729-.207-.303-.354-.646-.441-1.031-.087-.384-.13-.78-.13-1.188v-3.213h.459v3.213c0 .354.034.699.104 1.035.069.336.187.634.355.895.168.261.393.471.675.63.282.159.636.239 1.062.239m4.257.378v-6.39h.459v5.976h3.816v.414h-4.275m4.635 0l2.718-6.39h.378l2.718 6.39h-.495l-.891-2.106h-3.051l-.891 2.106h-.486m2.907-5.832l-1.422 3.348h2.817l-1.395-3.348m3.906 5.832v-6.39h2.664c.27 0 .519.057.747.171.228.114.423.265.585.454.162.189.289.402.383.639.093.237.139.475.139.715 0 .234-.036.46-.108.679-.072.219-.174.415-.306.59-.132.174-.291.318-.477.432-.186.114-.39.189-.612.225l1.593 2.484h-.531l-1.548-2.412h-2.07v2.412h-.459m.459-2.835h2.241c.204 0 .39-.045.558-.135.168-.09.312-.208.432-.356.12-.147.211-.315.275-.504.063-.189.094-.382.094-.581 0-.204-.037-.4-.112-.59-.075-.189-.177-.355-.306-.499-.129-.144-.279-.26-.45-.346-.171-.087-.355-.131-.553-.131h-2.178v3.141" fill="#000"/><path d="m37.11 100l2.92-7.1h.74l2.91 7.1h-.96l-.84-2.08h-2.98l-.83 2.08h-.96m3.29-6.06l-1.32 3.28h2.6l-1.28-3.28m3.74 3.44c0-.367.063-.713.19-1.04.127-.327.307-.612.54-.855.233-.243.512-.437.835-.58.323-.143.685-.215 1.085-.215.52 0 .968.115 1.345.345.377.23.662.538.855.925l-.86.27c-.133-.247-.32-.438-.56-.575-.24-.137-.507-.205-.8-.205-.24 0-.467.048-.68.145-.213.097-.397.232-.55.405-.153.173-.275.377-.365.61-.09.233-.135.49-.135.77 0 .273.047.53.14.77.093.24.218.448.375.625.157.177.34.315.55.415.21.1.435.15.675.15.153 0 .305-.022.455-.065.15-.043.287-.102.41-.175.123-.073.232-.158.325-.255.093-.097.16-.202.2-.315l.86.26c-.08.193-.192.37-.335.53-.143.16-.312.297-.505.41-.193.113-.408.203-.645.27-.237.067-.485.1-.745.1-.393 0-.753-.073-1.08-.22-.327-.147-.607-.343-.84-.59-.233-.247-.415-.535-.545-.865-.13-.33-.195-.678-.195-1.045m8.58 2.36c-.053.027-.123.058-.21.095-.087.037-.185.073-.295.11-.11.037-.23.067-.36.09-.13.023-.265.035-.405.035-.32 0-.597-.088-.83-.265-.233-.177-.35-.452-.35-.825v-3.51h-.71v-.69h.71v-1.74h.88v1.74h1.17v.69h-1.17v3.24c.013.193.077.333.19.42.113.087.247.13.4.13.173 0 .332-.028.475-.085.143-.057.242-.102.295-.135l.21.7m2.37.36c-.547 0-.96-.183-1.24-.55-.28-.367-.42-.913-.42-1.64v-3.13h.88v2.96c0 1.067.37 1.6 1.11 1.6.36 0 .698-.115 1.015-.345.317-.23.552-.545.705-.945v-3.27h.88v4.14c0 .207.093.313.28.32v.76c-.073.013-.138.023-.195.03-.057.007-.108.01-.155.01-.2 0-.357-.048-.47-.145-.113-.097-.177-.225-.19-.385l-.03-.63c-.233.393-.54.695-.92.905-.38.21-.797.315-1.25.315m5.83 0c-.26 0-.5-.042-.72-.125-.22-.083-.41-.197-.57-.34-.16-.143-.285-.313-.375-.51-.09-.197-.135-.405-.135-.625 0-.247.053-.472.16-.675.107-.203.258-.377.455-.52.197-.143.43-.253.7-.33.27-.077.565-.115.885-.115.253 0 .51.023.77.07.26.047.49.11.69.19v-.42c0-.427-.12-.762-.36-1.01-.24-.243-.58-.365-1.02-.365-.527 0-1.08.203-1.66.61l-.29-.57c.34-.227.677-.397 1.01-.51.333-.113.68-.17 1.04-.17.667 0 1.193.183 1.58.55.387.367.58.883.58 1.55v2.13c0 .207.093.313.28.32v.76c-.067.013-.13.023-.19.03-.06.007-.117.01-.17.01-.147 0-.29-.04-.43-.12-.14-.08-.217-.217-.23-.41l-.02-.37c-.12.16-.257.3-.41.42-.153.12-.317.22-.49.3-.173.08-.352.14-.535.18-.183.04-.365.06-.545.06m.22-.66c.28 0 .553-.06.82-.18.267-.12.477-.267.63-.44.127-.147.19-.283.19-.41v-.77c-.207-.08-.425-.142-.655-.185-.23-.043-.452-.065-.665-.065-.453 0-.817.092-1.09.275-.273.183-.41.435-.41.755 0 .133.027.262.08.385.053.123.13.232.23.325.1.093.223.168.37.225.147.057.313.085.5.085m3.96-6.74h.88v5.95c0 .193.052.345.155.455.103.11.248.165.435.165.073 0 .16-.012.26-.035.1-.023.193-.052.28-.085l.14.71c-.147.06-.32.11-.52.15-.2.04-.377.06-.53.06-.34 0-.608-.097-.805-.29-.197-.193-.295-.463-.295-.81v-6.27" fill="#fff"/><path d="m130.98 93.7h-2.45v6.3h-.9v-6.3h-2.45v-.8h5.8v.8m2.17 6.4c-.393 0-.752-.073-1.075-.22-.323-.147-.6-.343-.83-.59-.23-.247-.408-.533-.535-.86-.127-.327-.19-.67-.19-1.03 0-.367.065-.713.195-1.04.13-.327.31-.613.54-.86.23-.247.507-.443.83-.59.323-.147.678-.22 1.065-.22.387 0 .743.073 1.07.22.327.147.605.343.835.59.23.247.41.533.54.86.13.327.195.673.195 1.04 0 .36-.063.703-.19 1.03-.127.327-.307.613-.54.86-.233.247-.512.443-.835.59-.323.147-.682.22-1.075.22m-1.73-2.69c0 .273.045.527.135.76.09.233.213.437.37.61.157.173.34.31.55.41.21.1.435.15.675.15.24 0 .465-.05.675-.15.21-.1.395-.238.555-.415.16-.177.285-.383.375-.62.09-.237.135-.492.135-.765 0-.267-.045-.518-.135-.755-.09-.237-.215-.443-.375-.62-.16-.177-.345-.315-.555-.415-.21-.1-.435-.15-.675-.15-.24 0-.465.052-.675.155-.21.103-.393.243-.55.42-.157.177-.28.383-.37.62-.09.237-.135.492-.135.765m7.57 2.69c-.36 0-.693-.073-1-.22-.307-.147-.57-.343-.79-.59-.22-.247-.392-.533-.515-.86-.123-.327-.185-.67-.185-1.03 0-.367.058-.715.175-1.045.117-.33.28-.618.49-.865.21-.247.46-.442.75-.585.29-.143.608-.215.955-.215.42 0 .795.11 1.125.33.33.22.592.487.785.8v-3.12h.88v6.22c0 .207.093.313.28.32v.76c-.073.013-.138.023-.195.03-.057.007-.108.01-.155.01-.2 0-.36-.052-.48-.155-.12-.103-.183-.228-.19-.375l-.02-.49c-.207.34-.482.605-.825.795-.343.19-.705.285-1.085.285m.21-.76c.16 0 .325-.03.495-.09.17-.06.33-.143.48-.25.15-.107.28-.232.39-.375.11-.143.182-.295.215-.455v-1.5c-.06-.167-.15-.325-.27-.475-.12-.15-.255-.28-.405-.39-.15-.11-.31-.197-.48-.26-.17-.063-.338-.095-.505-.095-.26 0-.495.055-.705.165-.21.11-.39.257-.54.44-.15.183-.265.393-.345.63-.08.237-.12.478-.12.725 0 .26.047.508.14.745.093.237.22.442.38.615.16.173.348.312.565.415.217.103.452.155.705.155m6.24.76c-.393 0-.752-.073-1.075-.22-.323-.147-.6-.343-.83-.59-.23-.247-.408-.533-.535-.86-.127-.327-.19-.67-.19-1.03 0-.367.065-.713.195-1.04.13-.327.31-.613.54-.86.23-.247.507-.443.83-.59.323-.147.678-.22 1.065-.22.387 0 .743.073 1.07.22.327.147.605.343.835.59.23.247.41.533.54.86.13.327.195.673.195 1.04 0 .36-.063.703-.19 1.03-.127.327-.307.613-.54.86-.233.247-.512.443-.835.59-.323.147-.682.22-1.075.22m-1.73-2.69c0 .273.045.527.135.76.09.233.213.437.37.61.157.173.34.31.55.41.21.1.435.15.675.15.24 0 .465-.05.675-.15.21-.1.395-.238.555-.415.16-.177.285-.383.375-.62.09-.237.135-.492.135-.765 0-.267-.045-.518-.135-.755-.09-.237-.215-.443-.375-.62-.16-.177-.345-.315-.555-.415-.21-.1-.435-.15-.675-.15-.24 0-.465.052-.675.155-.21.103-.393.243-.55.42-.157.177-.28.383-.37.62-.09.237-.135.492-.135.765" fill="#ff435a"/><path d="m87.04 67.39c-.08-.093-.187-.183-.32-.27-.133-.087-.283-.165-.45-.235-.167-.07-.348-.127-.545-.17-.197-.043-.402-.065-.615-.065-.553 0-.958.103-1.215.31-.257.207-.385.49-.385.85 0 .193.037.353.11.48.073.127.188.235.345.325.157.09.352.168.585.235.233.067.51.137.83.21.367.08.698.172.995.275.297.103.55.232.76.385.21.153.37.34.48.56.11.22.165.49.165.81 0 .34-.067.635-.2.885-.133.25-.315.457-.545.62-.23.163-.502.283-.815.36-.313.077-.653.115-1.02.115-.547 0-1.065-.085-1.555-.255-.49-.17-.935-.418-1.335-.745l.43-.76c.107.113.245.227.415.34.17.113.363.215.58.305.217.09.45.163.7.22.25.057.512.085.785.085.507 0 .9-.09 1.18-.27.28-.18.42-.45.42-.81 0-.2-.045-.368-.135-.505-.09-.137-.222-.255-.395-.355-.173-.1-.388-.188-.645-.265-.257-.077-.548-.155-.875-.235-.36-.087-.677-.18-.95-.28-.273-.1-.502-.22-.685-.36-.183-.14-.322-.31-.415-.51-.093-.2-.14-.44-.14-.72 0-.34.063-.64.19-.9.127-.26.303-.48.53-.66.227-.18.497-.315.81-.405.313-.09.653-.135 1.02-.135.48 0 .913.073 1.3.22.387.147.73.343 1.03.59l-.42.73m7.65-1.49v7.1h-.9v-3.23h-3.91v3.23h-.9v-7.1h.9v3.07h3.91v-3.07h.9m4.6 7.15c-.5 0-.955-.102-1.365-.305-.41-.203-.762-.473-1.055-.81-.293-.337-.52-.722-.68-1.155-.16-.433-.24-.877-.24-1.33 0-.473.085-.927.255-1.36.17-.433.405-.817.705-1.15.3-.333.655-.598 1.065-.795.41-.197.855-.295 1.335-.295.5 0 .953.105 1.36.315.407.21.757.485 1.05.825.293.34.52.725.68 1.155.16.43.24.868.24 1.315 0 .473-.085.927-.255 1.36-.17.433-.403.815-.7 1.145-.297.33-.65.593-1.06.79-.41.197-.855.295-1.335.295m-2.43-3.6c0 .36.058.708.175 1.045.117.337.282.635.495.895.213.26.47.467.77.62.3.153.633.23 1 .23.38 0 .72-.082 1.02-.245.3-.163.555-.377.765-.64.21-.263.37-.562.48-.895.11-.333.165-.67.165-1.01 0-.36-.058-.708-.175-1.045-.117-.337-.283-.633-.5-.89-.217-.257-.473-.462-.77-.615-.297-.153-.625-.23-.985-.23-.38 0-.72.08-1.02.24-.3.16-.555.37-.765.63-.21.26-.372.557-.485.89-.113.333-.17.673-.17 1.02m7.04 3.55v-7.1h2.96c.313 0 .602.065.865.195.263.13.49.303.68.52.19.217.338.46.445.73.107.27.16.545.16.825 0 .293-.05.577-.15.85-.1.273-.242.517-.425.73-.183.213-.403.383-.66.51-.257.127-.542.19-.855.19h-2.12v2.55h-.9m.9-3.35h2.07c.187 0 .355-.038.505-.115.15-.077.278-.183.385-.32.107-.137.19-.295.25-.475.06-.18.09-.37.09-.57 0-.207-.035-.4-.105-.58-.07-.18-.163-.337-.28-.47-.117-.133-.253-.237-.41-.31-.157-.073-.322-.11-.495-.11h-2.01v2.95" fill="#000"/><path d="m27.03 64.9l2.35 5.97 2.34-5.97h.95l-2.9 7.1h-.78l-2.91-7.1h.95m8.11 7.2c-.393 0-.752-.073-1.075-.22-.323-.147-.6-.343-.83-.59-.23-.247-.408-.533-.535-.86-.127-.327-.19-.67-.19-1.03 0-.367.065-.713.195-1.04.13-.327.31-.613.54-.86.23-.247.507-.443.83-.59.323-.147.678-.22 1.065-.22.387 0 .743.073 1.07.22.327.147.605.343.835.59.23.247.41.533.54.86.13.327.195.673.195 1.04 0 .36-.063.703-.19 1.03-.127.327-.307.613-.54.86-.233.247-.512.443-.835.59-.323.147-.682.22-1.075.22m-1.73-2.69c0 .273.045.527.135.76.09.233.213.437.37.61.157.173.34.31.55.41.21.1.435.15.675.15.24 0 .465-.05.675-.15.21-.1.395-.238.555-.415.16-.177.285-.383.375-.62.09-.237.135-.492.135-.765 0-.267-.045-.518-.135-.755-.09-.237-.215-.443-.375-.62-.16-.177-.345-.315-.555-.415-.21-.1-.435-.15-.675-.15-.24 0-.465.052-.675.155-.21.103-.393.243-.55.42-.157.177-.28.383-.37.62-.09.237-.135.492-.135.765m5.43-4.71h.88v5.95c0 .193.052.345.155.455.103.11.248.165.435.165.073 0 .16-.012.26-.035.1-.023.193-.052.28-.085l.14.71c-.147.06-.32.11-.52.15-.2.04-.377.06-.53.06-.34 0-.608-.097-.805-.29-.197-.193-.295-.463-.295-.81v-6.27m4.1 7.3l-2.06-5.22h.91l1.65 4.45 1.66-4.45h.84l-2.06 5.22h-.94m6.16.1c-.393 0-.753-.072-1.08-.215-.327-.143-.607-.338-.84-.585-.233-.247-.415-.535-.545-.865-.13-.33-.195-.678-.195-1.045 0-.367.065-.713.195-1.04.13-.327.313-.613.55-.86.237-.247.518-.442.845-.585.327-.143.687-.215 1.08-.215.393 0 .752.073 1.075.22.323.147.598.342.825.585.227.243.402.527.525.85.123.323.185.658.185 1 0 .073-.002.14-.005.2-.003.06-.008.107-.015.14h-4.33c.02.26.08.497.18.71.1.213.23.397.39.55.16.153.342.273.545.36.203.087.418.13.645.13.16 0 .317-.022.47-.065.153-.043.297-.102.43-.175.133-.073.252-.163.355-.27.103-.107.182-.227.235-.36l.76.21c-.087.193-.205.37-.355.53-.15.16-.323.298-.52.415-.197.117-.415.208-.655.275-.24.067-.49.1-.75.1m1.79-3.06c-.02-.247-.082-.475-.185-.685-.103-.21-.233-.388-.39-.535-.157-.147-.338-.262-.545-.345-.207-.083-.427-.125-.66-.125-.233 0-.453.042-.66.125-.207.083-.388.2-.545.35-.157.15-.283.328-.38.535-.097.207-.155.433-.175.68h3.54m4.55-1.49c-.44.013-.828.127-1.165.34-.337.213-.575.51-.715.89v3.22h-.88v-5.22h.82v1.21c.18-.36.417-.658.71-.895.293-.237.607-.355.94-.355h.17c.047 0 .087.003.12.01v.8" fill="#1a91f2"/><g fill="#000"><path d="m15.39 48.61c.15 0 .282.032.395.095.113.063.207.147.282.25.075.103.132.221.17.352.038.132.058.266.058.403 0 .137-.019.271-.058.402-.038.132-.095.249-.17.353-.075.103-.169.187-.282.25-.113.063-.245.095-.395.095-.15 0-.282-.032-.395-.095-.113-.063-.207-.147-.282-.25-.075-.103-.132-.221-.17-.353-.038-.132-.058-.266-.058-.402 0-.137.019-.271.058-.403.038-.132.095-.249.17-.352.075-.103.169-.187.282-.25.113-.063.245-.095.395-.095m0-.265c-.197 0-.371.037-.523.11-.152.073-.279.172-.383.295-.103.123-.182.267-.235.432-.053.165-.08.341-.08.528 0 .187.027.362.08.527.053.165.132.309.235.433.103.123.231.221.383.292.152.072.326.108.523.108.197 0 .371-.036.522-.108.152-.072.279-.169.383-.292.103-.123.182-.267.235-.433.053-.165.08-.341.08-.527 0-.187-.027-.362-.08-.528-.053-.165-.132-.309-.235-.432-.103-.123-.231-.222-.383-.295-.152-.073-.326-.11-.522-.11m2.78.265c.15 0 .282.032.395.095.113.063.207.147.282.25.075.103.132.221.17.352.038.132.058.266.058.403 0 .137-.019.271-.058.402-.038.132-.095.249-.17.353-.075.103-.169.187-.282.25-.113.063-.245.095-.395.095-.15 0-.282-.032-.395-.095-.113-.063-.207-.147-.282-.25-.075-.103-.132-.221-.17-.353-.038-.132-.058-.266-.058-.402 0-.137.019-.271.058-.403.038-.132.095-.249.17-.352.075-.103.169-.187.282-.25.113-.063.245-.095.395-.095m0-.265c-.197 0-.371.037-.523.11-.152.073-.279.172-.383.295-.103.123-.182.267-.235.432-.053.165-.08.341-.08.528 0 .187.027.362.08.527.053.165.132.309.235.433.103.123.231.221.383.292.152.072.326.108.523.108.197 0 .371-.036.522-.108.152-.072.279-.169.383-.292.103-.123.182-.267.235-.433.053-.165.08-.341.08-.527 0-.187-.027-.362-.08-.528-.053-.165-.132-.309-.235-.432-.103-.123-.231-.222-.383-.295-.152-.073-.326-.11-.522-.11m2.78.265c.15 0 .282.032.395.095.113.063.207.147.283.25.075.103.132.221.17.352.038.132.058.266.058.403 0 .137-.019.271-.058.402-.038.132-.095.249-.17.353-.075.103-.169.187-.283.25-.113.063-.245.095-.395.095-.15 0-.282-.032-.395-.095-.113-.063-.207-.147-.282-.25-.075-.103-.132-.221-.17-.353-.038-.132-.057-.266-.057-.402 0-.137.019-.271.057-.403.038-.132.095-.249.17-.352.075-.103.169-.187.282-.25.113-.063.245-.095.395-.095m0-.265c-.197 0-.371.037-.523.11-.152.073-.279.172-.382.295-.103.123-.182.267-.235.432-.053.165-.08.341-.08.528 0 .187.027.362.08.527.053.165.132.309.235.433.103.123.231.221.382.292.152.072.326.108.523.108.197 0 .371-.036.523-.108.152-.072.279-.169.383-.292.103-.123.182-.267.235-.433.053-.165.08-.341.08-.527 0-.187-.027-.362-.08-.528-.053-.165-.132-.309-.235-.432-.103-.123-.231-.222-.383-.295-.152-.073-.326-.11-.523-.11"/><path d="m83.57 50.16h-.315c.037.31.147.539.33.688.183.148.432.223.745.223.19 0 .353-.033.49-.1.137-.067.251-.152.343-.258.092-.105.165-.223.22-.355.055-.132.097-.262.128-.39.03-.128.049-.249.057-.363.008-.113.013-.205.013-.275 0-.34-.024-.628-.073-.865-.048-.237-.122-.429-.222-.578-.1-.148-.227-.255-.38-.32-.153-.065-.337-.098-.55-.098-.173 0-.332.03-.478.09-.145.06-.27.142-.375.247-.105.105-.187.23-.245.375-.058.145-.087.302-.087.473 0 .17.027.327.082.47.055.143.132.267.233.37.1.103.222.184.365.242.143.058.302.088.475.088.2 0 .384-.053.552-.16.168-.107.294-.247.377-.42h.01c0 .16-.012.331-.035.513-.023.182-.07.351-.14.508-.07.157-.167.287-.293.39-.125.103-.291.155-.498.155-.203 0-.369-.06-.498-.18-.128-.12-.206-.277-.233-.47m.76-.6c-.133 0-.252-.024-.358-.073-.105-.048-.193-.114-.265-.197-.072-.083-.127-.182-.165-.295-.038-.113-.058-.233-.058-.36 0-.12.02-.235.06-.345.04-.11.097-.206.172-.288.075-.082.164-.147.267-.195.103-.048.217-.072.34-.072.153 0 .285.023.395.07.11.047.201.111.273.193.072.082.124.177.157.285.033.108.05.226.05.352 0 .13-.019.251-.058.363-.038.112-.095.209-.17.292-.075.083-.167.149-.275.197-.108.048-.231.073-.368.073m1.935 1.44h.42v-.53h-.42v.53m0-1.97h.42v-.53h-.42v.53m2.67.835h-1.33l1.32-1.905h.01v1.905m-1.615-.04v.305h1.615v.87h.29v-.87h.525v-.265h-.525v-2.365h-.285l-1.62 2.325m3.115-1.65v.225h.925v2.6h.315v-3.5h-.255c-.023.16-.062.284-.118.373-.055.088-.123.154-.205.197-.082.043-.178.071-.29.083-.112.012-.236.019-.373.022m4.55 1.425l.715-1.83.69 1.83h-1.405m.54-2.17l-1.435 3.57h.36l.43-1.11h1.625l.435 1.11h.365l-1.4-3.57h-.38m2.595 0l1.185 3.13 1.23-3.13h.5v3.57h-.34v-3.085h-.01l-1.22 3.085h-.32l-1.175-3.085h-.01v3.085h-.34v-3.57h.5"/></g><use xlink:href="#3"/></g><rect stroke-width="2" fill="#000" x="80" y="21" width="34" height="4" rx="8" ry="2"/><g fill="#f14a5e"><path d="m0 59h2v30h-2z"/><path d="m0 98h2v30h-2z"/><path d="m191 58h2v24h-2z"/></g></g><g fill="#e9e9e9"><path d="m13 115h167v113h-167z"/><path d="m118 170h62v58h-62z"/><path d="m132 268h36v44h-36z"/><path d="m78 268h36v44h-36z"/><path d="m23 268h36v44h-36z"/></g></g></svg>