<?xml version="1.0" encoding="UTF-8" standalone="no"?>
<svg width="22px" height="20px" viewBox="0 0 22 20" version="1.1" xmlns="http://www.w3.org/2000/svg" xmlns:xlink="http://www.w3.org/1999/xlink" xmlns:sketch="http://www.bohemiancoding.com/sketch/ns">
    <!-- Generator: Sketch 3.3.2 (12043) - http://www.bohemiancoding.com/sketch -->
    <title>Untitled 2</title>
    <desc>Created with Sketch.</desc>
    <defs></defs>
    <g id="Page-1" stroke="none" stroke-width="1" fill="none" fill-rule="evenodd" sketch:type="MSPage">
        <path d="M19,4 L16,4 L16,3 C16,1.3 14.7,0 13,0 L9,0 C7.3,0 6,1.3 6,3 L6,4 L3,4 C1.3,4 0,5.3 0,7 L0,17 C0,18.7 1.3,20 3,20 L19,20 C20.7,20 22,18.7 22,17 L22,7 C22,5.3 20.7,4 19,4 L19,4 Z M16,6 L16,18 L6,18 L6,6 L16,6 L16,6 Z M8,3 C8,2.4 8.4,2 9,2 L13,2 C13.6,2 14,2.4 14,3 L14,4 L8,4 L8,3 L8,3 Z M2,17 L2,7 C2,6.4 2.4,6 3,6 L4,6 L4,18 L3,18 C2.4,18 2,17.6 2,17 L2,17 Z M20,17 C20,17.6 19.6,18 19,18 L18,18 L18,6 L19,6 C19.6,6 20,6.4 20,7 L20,17 L20,17 Z" id="Shape" fill="#FFFFFF" sketch:type="MSShapeGroup"></path>
    </g>
</svg>