<?xml version="1.0" encoding="UTF-8" standalone="no"?>
<svg width="17px" height="16px" viewBox="0 0 17 16" version="1.1" xmlns="http://www.w3.org/2000/svg" xmlns:xlink="http://www.w3.org/1999/xlink" xmlns:sketch="http://www.bohemiancoding.com/sketch/ns">
    <!-- Generator: Sketch 3.3.2 (12043) - http://www.bohemiancoding.com/sketch -->
    <title>Untitled</title>
    <desc>Created with Sketch.</desc>
    <defs></defs>
    <g id="Page-1" stroke="none" stroke-width="1" fill="none" fill-rule="evenodd" sketch:type="MSPage">
        <path d="M17,13.0909091 C15.5833333,11.6363636 14.875,9.45454545 14.1666667,5.81818182 C13.5291667,2.69090909 11.6166667,0 8.5,0 C5.38333333,0 3.47083333,2.69090909 2.83333333,5.81818182 C2.125,9.45454545 1.41666667,11.6363636 0,13.0909091 L6.51666667,13.0909091 C6.44583333,13.3090909 6.375,13.5272727 6.375,13.8181818 C6.375,15.0545455 7.29583333,16 8.5,16 C9.70416667,16 10.625,15.0545455 10.625,13.8181818 C10.625,13.5272727 10.5541667,13.3090909 10.4833333,13.0909091 L17,13.0909091 L17,13.0909091 Z M4.25,6.10909091 C4.4625,5.01818182 5.38333333,1.45454545 8.5,1.45454545 C11.6166667,1.45454545 12.5375,5.01818182 12.75,6.10909091 C13.175,8.36363636 13.6708333,10.1818182 14.3083333,11.6363636 L2.62083333,11.6363636 C3.32916667,10.1818182 3.75416667,8.36363636 4.25,6.10909091 L4.25,6.10909091 Z M9.20833333,13.8181818 C9.20833333,14.2545455 8.925,14.5454545 8.5,14.5454545 C8.075,14.5454545 7.79166667,14.2545455 7.79166667,13.8181818 C7.79166667,13.3818182 8.075,13.0909091 8.5,13.0909091 C8.925,13.0909091 9.20833333,13.3818182 9.20833333,13.8181818 L9.20833333,13.8181818 Z" id="Shape" fill="#FFFFFF" sketch:type="MSShapeGroup"></path>
    </g>
</svg>