<?xml version="1.0" encoding="UTF-8" standalone="no"?>
<svg width="24px" height="23px" viewBox="0 0 24 23" version="1.1" xmlns="http://www.w3.org/2000/svg" xmlns:xlink="http://www.w3.org/1999/xlink" xmlns:sketch="http://www.bohemiancoding.com/sketch/ns">
    <!-- Generator: Sketch 3.3.2 (12043) - http://www.bohemiancoding.com/sketch -->
    <title>Untitled</title>
    <desc>Created with Sketch.</desc>
    <defs></defs>
    <g id="Page-1" stroke="none" stroke-width="1" fill="none" fill-rule="evenodd" sketch:type="MSPage">
        <path d="M16.2,13.3 C17.3,12.2 18,10.7 18,9 L18,6 C18,2.7 15.3,0 12,0 C8.7,0 6,2.7 6,6 L6,9 C6,10.7 6.7,12.2 7.8,13.3 C3.2,14 0,15.9 0,18 L0,20 C0,21.7 1.3,23 3,23 L21,23 C22.7,23 24,21.7 24,20 L24,18 C24,15.9 20.7,14 16.2,13.3 L16.2,13.3 Z M8,9 L8,6 C8,3.8 9.8,2 12,2 C14.2,2 16,3.8 16,6 L16,9 C16,11.2 14.2,13 12,13 C9.8,13 8,11.2 8,9 L8,9 Z M22,20 C22,20.6 21.6,21 21,21 L3,21 C2.4,21 2,20.6 2,20 L2,18 C2,17.8 2.6,17 4.3,16.3 C6.3,15.5 9.1,15 12,15 C14.9,15 17.7,15.5 19.7,16.3 C21.4,17 22,17.8 22,18 L22,20 L22,20 Z" id="Shape" fill="#FFFFFF" sketch:type="MSShapeGroup"></path>
    </g>
</svg>